<?xml version="1.0" encoding="utf-8"?>
<!-- Generator: Adobe Illustrator 22.1.0, SVG Export Plug-In . SVG Version: 6.00 Build 0)  -->
<svg version="1.1" id="图层_1" xmlns="http://www.w3.org/2000/svg" xmlns:xlink="http://www.w3.org/1999/xlink" x="0px" y="0px"
	 viewBox="0 0 555 555" style="enable-background:new 0 0 555 555;" xml:space="preserve">
<style type="text/css">
	.st0{fill:#010100;}
	.st1{fill:#FFFFFF;}
	.st2{fill:#050403;}
</style>
<path class="st0" d="M279.2,439.4c-68.3,0-136.6,0-205,0c-6.2,0-12.3-0.5-17.5-4.3c-7.1-5.2-10-12.3-10-20.9
	c0.1-41.8,0-83.7,0-125.5c0-49.9,0-99.8,0-149.7c0-15.8,9.4-25.1,25.3-25.3c6-0.1,12-0.1,17.9,0.1c2.4,0.1,3.4-0.5,3.3-3.2
	c-0.2-4-0.1-8.1-0.1-12.1c0.2-9,6.6-15.6,15.5-15.8c5.2-0.1,10.3-0.1,15.5,0c8.6,0.2,15.3,6.7,15.5,15.3c0.1,3.9,0.2,7.8,0,11.6
	c-0.2,2.9,0.4,4.3,3.8,4.1c7.9-0.3,15.8-0.3,23.7,0c3.3,0.1,3.5-1.1,3.5-3.9c-0.1-17.1-0.3-34.2,0-51.4
	c0.4-25.1,17.3-45.9,41.5-51.9c4.9-1.2,9.8-1.6,14.9-1.6c34.9,0,69.8,0,104.7,0c32.2,0,55.6,23.2,56,55.4c0.2,16.3,0.1,32.6,0,48.9
	c0,3.2,0.4,4.5,4,4.4c7.7-0.3,15.5-0.2,23.3,0c2.9,0.1,4.1-0.5,3.8-3.6c-0.3-3.9-0.1-7.7-0.1-11.6c0.2-9.2,6.7-15.7,16-15.8
	c5-0.1,10-0.1,15,0c8.6,0.2,15.3,6.7,15.5,15.3c0.1,4,0.2,8.1-0.1,12.1c-0.2,3.1,1,3.8,3.8,3.7c6.1-0.2,12.3-0.1,18.4-0.1
	c14.6,0.2,24.3,9.8,24.3,24.3c0,85.9,0,171.9,0,257.8c0,6.1,0,12.3,0,18.4c-0.1,15.5-9.6,25.2-25,25.2c-43.3,0-86.6,0-129.9,0
	C331.2,439.4,305.2,439.4,279.2,439.4z M496.6,199.7c-1.9,1.3-2.9,2-3.9,2.8c-27.3,20.9-54.5,41.9-81.7,62.9
	c-3.3,2.5-6.5,3.6-10.6,3.6c-28.4-0.1-56.8,0-85.3-0.2c-3.7,0-4.6,1-4.5,4.6c0.2,8.6,0.1,17.1,0,25.7c-0.1,9.7-6.5,16.1-16.1,16.2
	c-9.9,0.1-19.7,0.1-29.6,0c-9.9-0.1-16.3-6.5-16.4-16.4c-0.1-8.1-0.5-16.2,0-24.2c0.4-5.3-1.7-5.9-6.2-5.9
	c-28.1,0.2-56.2,0.1-84.3,0.1c-3.2,0-5.9-0.5-8.6-2.5c-22.6-17.5-45.2-34.9-67.9-52.3c-6.1-4.7-12.2-9.3-19.1-14.7
	c0,4.1,0,7.1,0,10.1c0,67.7,0,135.3,0,203c0,9.2,2.1,11.3,11.4,11.3c137.3,0,274.5-0.1,411.8-0.1c8.6,0,10.9-2.3,10.9-10.9
	c0-41.5,0.1-83,0.1-124.5C496.6,259.1,496.6,229.9,496.6,199.7z M279.5,129.1c-6.5,0-12.9,0-19.4,0c-62.5,0-125,0-187.5,0
	c-7.7,0-10.2,2.5-10.3,10.1c0,12.3,0,24.6-0.1,36.8c0,2.5,0.6,4.2,2.6,5.7c30.3,23.2,60.4,46.4,90.6,69.6c1.4,1.1,2.8,2,4.7,2
	c28.4-0.1,56.9-0.1,85.3,0c2.3,0,3.1-0.7,3-3c-0.1-4.2-0.1-8.4,0-12.6c0.3-8.8,6.6-15.2,15.4-15.4c10.3-0.2,20.7-0.2,31,0
	c8.8,0.1,15.1,6.7,15.4,15.4c0.1,3.9,0.2,7.8,0,11.6c-0.2,3.3,1,4,4.1,4c27.8-0.1,55.6-0.1,83.3,0c2.2,0,4-0.6,5.7-1.9
	c30-23.2,60.1-46.3,90.2-69.4c2.1-1.6,3-3.4,3-6.1c-0.1-11.8-0.1-23.6-0.1-35.4c0-9.3-2.1-11.5-11.3-11.5
	C416.7,129.1,348.1,129.1,279.5,129.1z M279.2,113.7c19.4,0,38.7-0.1,58.1,0.1c3.3,0,4.3-0.7,4.3-4.2c-0.2-16-0.1-32-0.1-47.9
	c0-7.3-2.7-10-9.9-10c-34.7,0-69.4,0-104.1,0c-7.3,0-10,2.6-10,9.8c0,16,0.1,32-0.1,47.9c0,3.3,0.7,4.3,4.2,4.3
	C240.7,113.6,260,113.7,279.2,113.7z M279.5,20.9c-17.6,0-35.2,0-52.8,0c-23.3,0.1-40,16.7-40.1,39.9c0,13.9,0,27.8,0,41.7
	c0,11.2,0,11,11,11.1c3.5,0,4.2-1.2,4.2-4.4c-0.2-16.3-0.1-32.6-0.1-48.9c0-14.2,10.1-24.3,24.4-24.3c35.5,0,71,0,106.6,0
	c14.6,0,24.5,9.9,24.5,24.7c0,14,0,28.1,0,42.1c0,10.8,0,10.7,10.9,10.7c3.4,0,4.4-0.8,4.3-4.3c-0.2-16.1,0-32.3-0.1-48.4
	c-0.1-23.3-16.8-39.9-40-40C314.7,20.8,297.1,20.9,279.5,20.9z M294.7,284.7c0.1,0,0.2,0,0.3,0c0-4.2-0.1-8.4,0-12.5
	c0.1-2.4-0.5-3.5-3.2-3.4c-8.2,0.2-16.4,0.1-24.6,0c-2.5,0-3.3,0.8-3.3,3.3c0.1,8.2,0.1,16.4,0,24.6c-0.1,2.7,1,3.2,3.4,3.2
	c4.2-0.1,8.4,0.1,12.5-0.1c4.9-0.2,11.5,2.2,14.3-1C296.5,295.9,294.7,289.5,294.7,284.7z M279.1,253.1c4.2,0,8.5,0.4,12.6-0.1
	c6.6-0.9,2-6.1,2.8-9.2c0.5-1.8,2.3-5.9-2.9-5.8c-8.2,0.1-16.5,0.1-24.7,0c-2,0-3.3,0.6-2.8,2.7c1,4.1-2.5,8.8,1.9,12.3
	c0.5,0.4,1.6,0.1,2.4,0.1C272,253.1,275.6,253.1,279.1,253.1z M108.8,105.7c0,8.2,0,8.2,8.4,8.2c7.3,0,7.3,0,7.3-7.3
	c0-8.4,0-8.4-8.2-8.4C108.8,98.1,108.8,98.1,108.8,105.7z M450.2,106.2c0-8.1,0-8.1-8-8.1c-7.7,0-7.7,0-7.7,7.9c0,7.8,0,7.8,7.8,7.8
	C450.2,113.8,450.2,113.8,450.2,106.2z"/>
<g>
	<path class="st1" d="M549,505.3L549,505.3C549,505.3,549,505.3,549,505.3C549,505.3,549,505.3,549,505.3L549,505.3
		C549,505.3,549,505.3,549,505.3C549,505.3,549,505.3,549,505.3c-0.1-0.2-0.2-0.5-0.3-0.7c0,0,0,0,0,0v0c0,0,0,0,0,0v0
		c0,0.3,0,0.6-0.1,0.9c-3.2-6.8-5.9-14.3-10.2-21c-8.7-13.7-22.2-20.9-37.6-24.5c-16.9-4-27.1-14.5-33-30.6
		c-10.9-29.6-22.5-58.9-33.9-88.3c-6.5-16.7-18.8-23.1-36.6-19.5c-15,3.1-28.2-0.2-37.4-12.8c-4.2-5.7-6.4-13-8.7-19.9
		c-2.9-8.7-4.3-9.9-13.3-8.9c-36.8,4.4-61.3,25.6-71.2,61.4c-0.6,2.1-2.2,4.4-4,5.6c-24.5,16.5-26.6,45.7-4.6,65.6
		c17.1,15.5,34.2,31,51.3,46.6c1.3,1.2,2.5,2.6,4.8,5.1h-0.7c3.7,3.7,8,6.6,12,10c1.4,1.2,2.8,2.6,4,3.9c0.9,0.4,1.8,1,2.5,1.6
		c21.3,18.6,42.4,37.5,63.5,56.4c11.5,6.4,23.9,11,36.8,13.4c25.3,0,50.5,0.1,75.8,0.3c19.5,0.2,33.5-6.4,41.3-25.5
		c0,0.5-0.1,1.1-0.1,1.6c0.1-0.2,0.1-0.3,0.2-0.5v0c0,0,0,0,0,0c0-0.8,0.2-1.6,0.4-2.4c0-5.4,0-10.7,0-16.1
		C549.6,506.6,549.3,506,549,505.3z"/>
	<path d="M549,505.3L549,505.3C549,505.3,549,505.3,549,505.3C549,505.3,549,505.3,549,505.3L549,505.3
		C549,505.3,549,505.3,549,505.3C549,505.3,549,505.3,549,505.3c-0.1-0.2-0.2-0.5-0.3-0.7c0,0,0,0,0,0v0c0,0,0,0,0,0v0
		c0,0.3,0,0.6-0.1,0.9c-3.2-6.8-5.9-14.3-10.2-21c-8.7-13.7-22.2-20.9-37.6-24.5c-16.9-4-27.1-14.5-33-30.6
		c-10.9-29.6-22.5-58.9-33.9-88.3c-6.5-16.7-18.8-23.1-36.6-19.5c-15,3.1-28.2-0.2-37.4-12.8c-4.2-5.7-6.4-13-8.7-19.9
		c-2.9-8.7-4.3-9.9-13.3-8.9c-36.8,4.4-61.3,25.6-71.2,61.4c-0.6,2.1-2.2,4.4-4,5.6c-24.5,16.5-26.6,45.7-4.6,65.6
		c17.1,15.5,34.2,31,51.3,46.6c1.3,1.2,2.5,2.6,4.8,5.1h-0.7c3.7,3.7,8,6.6,12,10c1.4,1.2,2.8,2.6,4,3.9c0.9,0.4,1.8,1,2.5,1.6
		c21.3,18.6,42.4,37.5,63.5,56.4c11.5,6.4,23.9,11,36.8,13.4c25.3,0,50.5,0.1,75.8,0.3c19.5,0.2,33.5-6.4,41.3-25.5
		c0,0.5-0.1,1.1-0.1,1.6c0.1-0.2,0.1-0.3,0.2-0.5v0c0,0,0,0,0,0c0-0.8,0.2-1.6,0.4-2.4c0-5.4,0-10.7,0-16.1
		C549.6,506.6,549.3,506,549,505.3z M395.1,336.7c9.8-7.5,21.3-4.8,26.5,6.4c1.4,3,2.4,6.1,3.4,8.9c-3.6,4.9-14.7,4-10.6,13
		c3.8,8.2,9.9,0.3,15.9,0.2c2.2,5.9,4.5,12,6.7,17.7c-3.5,5.3-15.5,3.8-11.1,13.3c3.8,8.1,9.9,0.2,16.1-0.2
		c2.4,5.9,4.9,12.2,7.4,18.6c-3,4-12.3,3.9-8.5,11.9c3,6.1,8,2.4,12.9,0.9c3.3,7.6,6.6,15.1,10.3,23.5c-6.6,4.3-13.2,8.6-20.2,13.1
		c-1.3-1.7-2.3-2.8-3-4.1c-17.4-30-34.8-59.9-52.1-89.9C382,358.1,384.7,344.7,395.1,336.7z M279.4,342.1
		c3.1-11.8,9.1-21.9,17.7-30.4c23.6,12.4,29.9,47.3,11.5,66.5c-9.7-10.6-19.4-21.1-28.9-31.8C279,345.5,279.1,343.5,279.4,342.1z
		 M519.1,536.9c-27.3,0.2-54.7,0.7-81.9-1c-19-1.1-35.8-10.1-50-22.9c-40.9-36.9-81.7-73.9-122.4-111c-13.1-12-12.3-31.4,0.9-42
		c3.9-3.2,6.6-3.6,10.5,0.7c17.3,19.4,34.9,38.5,52.4,57.7c1.6,1.8,3.1,4.4,5.1,5.1c2.7,1,6,0.5,9,0.6c0.1-3,1.4-6.9,0-8.8
		c-5.2-6.9-11.4-13-17.2-19.4c-2.2-2.5-4.5-4.9-7-7.7c10-13.1,15.6-27.4,13.7-44c-1.9-16.6-10-29.6-22.9-40.9
		c8.2-6.4,17.5-8.5,27.1-9.8c1.1-0.1,3.2,1.8,3.5,3.1c5,20.2,18,32.6,38,38.4c-0.5,1.5-0.8,2.6-1.3,3.5c-6.8,13.7-5.7,26.9,1.9,40
		c16.5,28.2,32.8,56.4,49.2,84.7c1.1,1.9,2.1,3.9,3.8,6.9c-7.8,3.6-15.3,7.2-23,10.3c-1.4,0.5-4.2-1.1-5.7-2.5
		c-6.7-6.2-13.2-12.5-19.7-18.9c-3.1-3.1-6.3-6.7-10.7-3c-4.4,3.7-2.5,7.7,0.9,11.5c31.9,36.2,72,54.6,120.2,55.5
		c13.5,0.2,27,0,41.6,0C531.9,531.6,526.6,536.8,519.1,536.9z M420.5,490.4c10.5-5.6,20.3-10.6,29.9-15.9c4.3-2.3,8.7-4.7,12.3-7.8
		c6.5-5.6,11.9-6.3,19.6-1c6.4,4.4,14.7,5.9,22.3,8.4c15.5,5.1,25.7,15.3,30.2,31c0.4,1.4,0.5,3,0.8,5
		C495.9,510.8,456.5,513.7,420.5,490.4z"/>
	<path d="M356.6,446.9c-2.9-4.1-6.1-6.7-5.7-8.6c0.5-2.5,3.7-4.5,5.7-6.7c2.1,2.1,5.6,4.1,6,6.5
		C362.8,440.2,359.5,442.8,356.6,446.9z"/>
</g>
<g>
	<path class="st1" d="M316.8,318.9c-5.6-1.9-11.4-3.2-17.5-3.4c-16.8-0.7-32.9,3.4-48.8,7.8c-4.4,1.2-7.2,0.4-10.2-2.9
		c-9.9-10.5-21.1-19.7-32.7-28.4c-1.6-1.2-3.2-2.1-4.7-2.5c-4.2-3-8.6-5.8-13.2-8.3c-5.8-3.1-12.5-6.9-19.3-7.5
		c-1.4-0.6-3-1-4.9-1.2c-9.5-1.1-18.1,1.2-26.6,5.5c-12.8,6.4-21.6,18.3-28.1,29.1c-6.4,10.5-14,14.6-23.6,16.6
		c-8.2,1.7-16.7,2-24.7,4.7c-18.5,6.3-29.9,18.6-32.2,38.6c-2.5,21.4,0.7,42.4,8.3,61.9c6.1,15.6,5.1,26.4-7.1,38.4
		c-10.6,10.4-18,24-21.6,38.9c-4.8,19.5,4.4,33.9,23.9,38c3.6,0.7,7.3,1.1,10.9,1.2c22.9,0.6,44.6-5.6,65.8-13.4
		c37.5-13.6,72.4-32.4,105.8-54.1c33.2-21.6,63.3-46.7,89.5-76.3c12.1-13.6,22.9-28.2,27.8-46.2C338.6,338.2,332,324.2,316.8,318.9z
		"/>
	<g>
		<g>
			<path class="st2" d="M195.9,291.9c4-4,7.6-3,11.7,0.1c11.6,8.7,22.7,17.9,32.7,28.4c3.1,3.3,5.8,4.1,10.2,2.9
				c16-4.4,32-8.4,48.8-7.8c6.1,0.2,11.9,1.5,17.5,3.4c15.2,5.2,21.8,19.3,17.1,36.3c-4.9,18-15.7,32.6-27.8,46.2
				c-26.3,29.6-56.4,54.7-89.5,76.3c-33.4,21.7-68.3,40.5-105.8,54.1c-21.2,7.7-42.9,13.9-65.8,13.4c-3.7-0.1-7.4-0.4-10.9-1.2
				c-19.6-4.1-28.7-18.5-23.9-38c3.7-14.9,11-28.4,21.6-38.9c12.2-12,13.1-22.8,7.1-38.4c-7.6-19.5-10.8-40.5-8.3-61.9
				c2.4-20.1,13.7-32.4,32.2-38.6c8-2.7,16.5-3,24.7-4.7c9.6-2,17.2-6.1,23.6-16.6c6.5-10.8,15.4-22.6,28.1-29.1
				c8.4-4.3,17.1-6.5,26.6-5.5c6,0.7,10,3,9.7,9.8c-3,3-6.4,3.9-10.7,3.1c-8.8-1.6-16.6,1.1-23.5,6.6c-7.3,5.8-12.4,13.4-17.3,21.3
				c-8.6,13.8-20.9,21.7-37.3,23.2c-4.4,0.4-8.8,1.3-13.2,2.2c-21.8,4.7-30.5,14.9-30.9,37.1c-0.6,26,7.8,50.1,16.6,74.1
				c1.2,3.2,3.1,4.5,6.6,3.4c6.5-2,13.2-3.5,19.7-5.5c61.4-18.2,112.4-52.2,153.7-101c3.2-3.8,3.3-6.1-0.1-9.8
				c-11.8-12.8-24.7-24.3-38.7-34.7C196.5,299.7,194,296.8,195.9,291.9z M255.2,335.3c4.5,5.4,8.4,10,12.2,14.6
				c8.6,10.6,8.7,18.6,0.1,28.9c-48.8,58.2-110.3,96.3-183.5,115.8c-11.3,3-20-1.4-25.1-12.1c-2.7-5.6-5.2-11.3-8.3-18
				c-11.6,13-21.4,26-27.2,41.8c-2.1,5.8,0.3,7.4,5.4,7.9c10.3,1.1,20.5,0.3,30.6-1.8c33.5-6.8,64.6-20.3,94.4-36.5
				c48.5-26.4,93.6-57.4,130.5-99c10.5-11.8,19.8-24.5,25.3-39.7c2.1-5.8,0.4-7.9-5.7-8.5C287.4,327.2,272,331.3,255.2,335.3z
				 M320.7,344.9c-8.6,19.6-21.2,35.6-35.5,50.3c-43.1,44.2-93.7,77.7-149.1,104.1C104,514.6,71,527.8,34.5,527.9
				c-1.1,0-2.6,0-3.1,2.2c6.5,2.5,13.2,2.8,19.9,2.4c25-1.4,48.5-9,71.3-18.8c66.5-28.4,126-67.1,174.6-121.2
				c9.3-10.4,17.5-21.8,22.5-35C321.2,353.8,323.6,350,320.7,344.9z"/>
			<path class="st2" d="M191.9,290.1c-7.8,4.2-10.7,2.8-12.3-6.2c2.5-2.8,5.4-5.1,9.3-3.1C192.8,282.8,192.7,286.4,191.9,290.1z"/>
		</g>
	</g>
</g>
</svg>
