<?xml version="1.0" encoding="utf-8"?>
<!-- Generator: Adobe Illustrator 22.1.0, SVG Export Plug-In . SVG Version: 6.00 Build 0)  -->
<svg version="1.1" id="图层_1" xmlns="http://www.w3.org/2000/svg" xmlns:xlink="http://www.w3.org/1999/xlink" x="0px" y="0px"
	 viewBox="0 0 555 555" style="enable-background:new 0 0 555 555;" xml:space="preserve">
<path d="M412.5,472.4c-20.6,7.1-31.7,5-40.3-7.4c-6.4-9.3-5.8-23,1.5-31.9c9.2-11.3,20.6-13,38.4-5.4c0.1-2.3,0.4-4.3,0.4-6.4
	c0-30.2-0.1-60.4,0.1-90.6c0-4.5-1.3-7-5.3-9.2c-15.7-8.8-30.5-7.6-46,1.4c-9.4,5.5-12.6,11.8-12.5,22.8
	c0.6,59.5,0.3,119.1,0.3,178.7c0,2.4,0,4.7,0,7.6c60.6,0,120.7,0,181.6,0c0-2.4,0-4.7,0-7.1c0-20.6,0-41.2,0-61.7
	c0-1.3-0.1-2.7,0.1-3.9c0.9-5.2,4.1-8.4,9.3-8.4c5.3,0.1,8.6,3.4,8.7,8.8c0.1,27.4,0.2,54.7,0,82.1c0,6.2-3.8,8.9-11.3,8.9
	c-32.2,0.1-64.4,0.1-96.6,0.1c-32.2,0-64.4,0-96.6,0c-11,0-13.7-2.5-13.6-13.3c0-7.4,0-14.8,0-22.6c-7.5,0-14.4,0-22.3,0
	c1.2,7.7,2.3,15,3.5,22.2c1.6,9.8-1.5,13.7-11.2,13.7c-58.7,0-117.4,0-176,0c-9.9,0-13.1-3.9-11.5-13.4c1.2-7.1,2.3-14.2,3.5-22.2
	c-2.5-0.2-4.5-0.5-6.6-0.6c-9.8-0.2-19.7,0.4-29.5-0.4c-27.9-2.2-49-24.7-49.8-52.6c-0.3-12-0.1-24.1,0-36.1
	c0.1-6.8,3.4-10.8,8.7-11c5.6-0.2,9.2,4,9.3,11.1c0.1,10.7,0,21.5,0,32.2c0,22.8,15.4,38.4,38.2,38.7c9.4,0.1,18.8-0.1,28.2,0.1
	c3.4,0.1,5.3-0.9,5.5-4.7c0.2-7.2,0.9-14.4,1-21.6c0.2-16.8,11.7-28.5,28.5-28.6c41.6,0,83.2-0.1,124.8,0
	c16.8,0,28.2,11.8,28.4,28.6c0.1,7,0.7,14,0.9,20.9c0.1,3.8,1.7,5.4,5.6,5.3c6.7-0.3,13.4-0.1,20.5-0.1c0-48.6,0-96.5,0-144.9
	c-8.6,0-17.3,0-26.5,0c-0.2,1.4-0.5,3.1-0.5,4.8c-0.1,12.7,0.2,25.4-0.3,38.1c-0.1,3.2-1.4,7.3-3.7,9.2c-16.8,13.7-35.2,19.2-56,9.4
	c-8.4-4-17.1-3.9-25.4,0c-20.9,9.7-39.3,4.3-56-9.4c-2.5-2.1-3.8-6.8-3.9-10.4c-0.4-13.7-0.2-27.5-0.2-41.7c-36.4,0-72.4,0-109.1,0
	c0,11.5,0.3,22.9-0.2,34.2c-0.1,3.1-1.7,7.1-4,9c-5.8,4.7-13.6,0-13.8-8.3c-0.3-11.4-0.1-22.7-0.1-34.5c-2.5-0.7-4.7-1.3-7-1.9
	C10.4,345.7,2.3,334,3.7,320.4C5,307,16.2,296.6,30.2,295.9c5.9-0.3,11.8,0,17.6,0c1.9-7.1,2.8-14.1,5.6-20.3
	c2.8-6.5,6.8-12.8,11.2-18.3c14-17.4,15.1-34.2,3.5-53.2c-12.4-20.2-14.4-41.8-5.4-63.5c7.1-17.1,21.5-25.5,39.9-26.2
	c12.2-0.5,24.4-0.1,37.1-0.1c0-18.3,0-36.1,0-54.3c-5.9,0-11.5,0-17.8,0c0,8.3,0.1,16.4,0,24.4c-0.1,7.4-3.8,11.7-9.6,11.5
	c-5.6-0.2-8.7-4.3-8.7-11.6c0-10.5-0.1-21,0.1-31.5c0.1-8.1,3.1-11.2,11.1-11.2c22.8-0.1,45.5-0.1,68.3-0.1
	c8.4,0,11.3,3.1,11.3,11.6c0,20.1,0,40.2,0,58.5c9.9,4.3,19.2,7.3,27.4,12.2c9.6,5.7,15.2,15.4,17,26.3c3.3,19.5,1.8,38.2-9.7,55.4
	c-11,16.4-9.4,35.3,3.3,50.4c2.1,2.5,4.3,5,5.9,7.8c2.8,4.7,1.7,9.1-2.6,12.2c-4.4,3.1-8.7,2.2-12.3-1.8c-0.1-0.2-0.3-0.3-0.4-0.5
	c-6.1-12.9-16.8-14.2-29.7-13.9c-33,0.8-66.1,0.4-99.2,0.1c-5.9,0-9.8,1.4-13.7,6.3c-6.2,7.9-11.7,15.8-12.9,26c-0.1,1,0,2.1,0,3.9
	c10.1,0,19.9,0,29.7,0c76.6,0,153.3,0,229.9,0.1c5.1,0,7-1.6,9.3-6.4c5.7-12.4,11.8-24.9,19.8-36c12.5-17.3,19.9-35.8,20.2-57.1
	c0.1-11.6,0-23.2,0.1-34.8c0.1-8.2,2.8-10.9,11.2-11c5-0.1,10,0,15.8,0c0-9.3-0.1-17.8,0-26.3c0.1-6.9,5-11.2,10.9-9.9
	c5,1.1,7.2,4.6,7.2,9.6c0,8.5,0,17,0,26.1c12.1,0,23.8,0,36.1,0c0-17.8,0-35.6,0-53.8c-24,0-47.9,0-71.9,0
	c-1.8,9.4-3.1,18.9-5.4,28.2c-7.5,30-23.2,55-46.1,75.6c-10.6,9.5-21.3,18.9-31.9,28.4c-4.2,3.7-8.4,5.7-13.4,1.8
	c-4.3-3.3-4.4-8.1-0.9-14.1c11.3-19.5,23.6-38.4,33.4-58.6c9.3-19,10.3-40,9.1-60.4c-5.3-1.4-11.5-1.3-14.7-4.4
	c-3.2-3.1-3.3-9.3-5-15.2c-7,0-15,0-23.1,0c-8.5,0-11.4-2.8-11.5-11.4c-0.1-10.7-0.1-21.5,0-32.2c0.1-7.8,3.1-10.7,10.8-10.7
	c8.1-0.1,16.1,0,24.6,0c0.2-1.8,0.6-3.2,0.6-4.7c0.3-11.2,2.7-13.5,13.6-13.5c7.2,0,14.5-0.1,21.7,0c6.5,0.1,10.6,3.9,10.5,9.2
	c-0.1,5-4.3,8.7-10.3,8.9c-5.4,0.2-10.9,0-16.7,0c0,18.2,0,35.8,0,54.3c5.1,0,10.1,0,15.1,0c42.5,0,84.9,0,127.4-0.1
	c13.8,0,20.6-6.7,20.9-20.4c0.1-5,0.2-10.1,0-15.1c-0.6-11.7-7.7-18.5-19.4-18.6c-28-0.1-56,0-84.1,0c-2.2,0-4.4,0.1-6.5-0.2
	c-5.2-0.9-8.2-4.2-8-9.6c0.2-5.5,3.6-8.4,9-8.4c12-0.1,24.1-0.1,36.1-0.1c18,0,35.9-0.1,53.9,0c21.8,0.1,37.1,15.6,37.1,37.4
	c0,3.5,0,7,0,10.5c0.2,26.2-9.9,38.6-35.8,43.4c0,17.8,0,35.6,0,54.1c5.3,0,10.3-0.1,15.3,0c8.6,0.2,11.5,3.1,11.6,11.5
	c0.1,10.7,0.1,21.5-0.1,32.2c-0.3,22.4,6.5,42.2,20.6,59.5c16.7,20.5,24.9,43.9,24.7,70.3c-0.2,32,0,63.9-0.1,95.9
	c0,2.7,0,6.5-1.7,8c-2.4,2.2-6.4,3.9-9.6,3.7c-4.7-0.3-6.8-4.4-6.9-9c-0.1-7.6,0-15.2,0-23.1c-19.6,8-31,6.4-40.1-5.4
	c-7.1-9.2-7-24,0.3-33.1c9.1-11.4,21.1-13,39.7-5c0-7.7,0.1-15-0.1-22.4c0-1.3-0.9-2.9-1.9-3.8c-19-17.3-37.1-19.2-59.4-6.4
	c-9.1,5.2-19,7.7-29.5,7.6c-2.8,0-5.6,0-8.7,0c0,55.1,0,109.7,0,164.6c5.9,0,11.5,0,17.9,0c0-2.7,0-5,0-7.3c0-42.5,0-84.9,0.1-127.4
	c0-3.1,0.6-7.1,2.6-9c2.1-2,7.1-3.5,9.1-2.3c3,1.8,6.1,6,6.3,9.4c0.7,14.6,0.3,29.3,0.3,44c0,32.6,0,65.2,0,97.9
	c0,10.5-2.6,13.1-13.2,13.2c-10.1,0.1-20.1,0.1-30.2,0c-8.2-0.1-11.3-3.3-11.4-11.7C412.4,492.6,412.5,482.6,412.5,472.4z
	 M204.4,241.2c-1.5-24.3-0.4-28.5,11.4-49.2c2.4-4.1,3.5-8.9,5.6-14.4c-10,0-18.3,0.2-26.6-0.1c-6.9-0.2-11-5.5-9.2-11.2
	c1.5-4.8,5.2-6.8,10.1-6.8c8.5,0,16.9,0,25.4,0c0.3-14.6-10.5-26.6-24.7-26.8c-31.7-0.4-63.4-0.5-95.1,0
	c-14,0.2-25.2,12.9-24.5,26.9c2.1,0,4.2,0,6.4,0c12.5,0,24.9-0.1,37.4,0.1c6.4,0.1,10.5,4.2,10.3,9.5c-0.3,5.1-4.2,8.4-10.5,8.5
	c-12,0.1-24.1,0-36.1,0.1c-2.3,0-4.6,0.3-8.6,0.5c9.5,20.7,24.1,38.9,16.9,62.9C130.4,241.2,167.2,241.2,204.4,241.2z M257.7,532
	c1.4-14.6,3-17.8,9.1-17.5c11.8,0.5,8.7,10.2,9.9,17.3c5.3,0,10.4,0,16,0c-1.8-10.6-3.8-20.4-5.1-30.4c-0.6-4.4-2.5-5.3-6.4-5.2
	c-10.3,0.2-20.6,0.1-30.9,0.1c-35.2,0-70.5-0.1-105.7,0.1c-2.3,0-6.2,1.6-6.5,3.1c-2.3,10.6-3.8,21.3-5.6,32.5c5.8,0,10.8,0,15.9,0
	c1.5-6.8-2.1-17.1,9.2-17.4c11.9-0.3,8.4,10.3,9.9,17.3c5.9,0,11.4,0,17.2,0c0.8-7.4-1.4-17.2,9.5-17.3c11.7-0.1,8.1,10.5,9.5,17.2
	c6.1,0,11.9,0,17.6,0c0.8-13.4,2.4-17.2,8.2-17.3c12.5-0.2,9.6,10.3,10.9,17.5C246.6,532,252,532,257.7,532z M176.4,350.3
	c36.5,0,72.3,0,108.4,0c0-12.1,0-23.8,0-35.7c-36.4,0-72.3,0-108.4,0C176.4,326.7,176.4,338.2,176.4,350.3z M529.5,308.1
	c-2.9-17-9.5-30.6-19.3-42.7c-8.9-11-15.8-23.2-19.9-36.7c-2.3-7.5-3.4-15.3-5.1-23.3c-5.7,0-11.5,0-17.4,0c0,32.6,0,64.9,0,98
	C489,293.2,509.1,295.2,529.5,308.1z M394.2,205.2c-2.2,25.6-12.9,47-28.8,66.1c-2.6,3.2-4.8,6.8-6.4,10.6c-3.3,8-6.1,16.2-9.2,24.4
	c25.5-10.9,27.3-11,62-3.7c0-32.4,0-64.8,0-97.3C405.9,205.2,400.5,205.2,394.2,205.2z M285.3,369.4c-36.7,0-72.6,0-109.1,0
	c0,6.7-0.2,13,0.1,19.3c0.1,1.4,1.3,3.2,2.5,4.1c8.7,6.1,18.3,9,28.4,4.5c15.7-7.1,31-7.4,46.8-0.1c9.7,4.5,19.3,2.3,27.9-3.7
	c1.7-1.1,3.1-3.7,3.2-5.7C285.5,381.9,285.3,376,285.3,369.4z M284.7,477.8c1.8-15-0.8-17.9-15.1-17.9c-38.3,0-76.5,0.2-114.8-0.2
	c-11.1-0.1-17.3,2.7-13.9,18.1C188.7,477.8,236.5,477.8,284.7,477.8z M157.7,314.1c-2.8,0-5.2,0-7.5,0c-32.2,0-64.4,0-96.5,0
	c-6.8,0-13.6-0.1-20.4,0c-7.2,0.1-11.2,3.4-11.4,9c-0.1,5.8,3.8,9.1,11,9.2c0.4,0,0.9,0,1.3,0c38.5,0,77.1,0,115.6,0
	c2.5,0,5.1,0,7.9,0C157.7,325.9,157.7,320.3,157.7,314.1z M431,312.2c3.7,0.3,6.7,0.5,9.7,0.8c6.1,0.5,8.7-1.2,8.5-8.3
	c-0.5-30.8-0.2-61.6-0.2-92.4c0-2.3,0-4.6,0-6.8c-6.5,0-12.1,0-18,0C431,241,431,276.1,431,312.2z M394.9,186.4
	c30.3,0,60.2,0,90.2,0c0-5.9,0-11.4,0-17.3c-30.3,0-60.1,0-90.2,0C394.9,174.9,394.9,180.2,394.9,186.4z M158.5,113.8
	c6.1,0,11.6,0,17,0c0-18.2,0-36,0-53.9c-5.9,0-11.2,0-17,0C158.5,78,158.5,95.6,158.5,113.8z M337.9,168.7
	c17.3-21,26.7-45.1,28.8-72.4c-6.1,0-11.6,0-17.8,0C350.1,121.5,346.8,145.5,337.9,168.7z M330.6,314.6c-9.1,0-17.8,0-26.8,0
	c0,6,0,11.6,0,17.4c9.1,0,17.9,0,26.8,0C330.6,325.9,330.6,320.4,330.6,314.6z M312,59.1c0-5.7,0-11.4,0-17c-6,0-11.5,0-17.2,0
	c0,5.9,0,11.3,0,17C300.6,59.1,306,59.1,312,59.1z M395.5,441c-5.1-0.2-9.3,3.8-9.3,8.9c-0.1,4.8,3.7,8.7,8.6,8.9
	c5.2,0.2,9.3-3.7,9.3-8.8C404.1,445.2,400.3,441.1,395.5,441z M521.6,377.6c-0.2-4.9-4-8.5-8.9-8.5c-5.3,0-9,3.9-8.8,9.2
	c0.2,4.9,4,8.6,8.9,8.6C518,386.8,521.8,382.8,521.6,377.6z"/>
<path d="M512.6,478.1c-0.1,5-4.3,9.2-9.2,9.1c-4.9-0.1-8.9-4.5-8.7-9.5c0.2-4.8,4-8.6,8.9-8.6C508.7,468.9,512.7,472.9,512.6,478.1z
	"/>
<path d="M394.3,369.2c-0.2,5.1-4.5,9.1-9.4,8.7c-5-0.4-8.7-4.7-8.4-9.8c0.3-4.9,4.1-8.4,9.1-8.3C390.8,360.1,394.5,364,394.3,369.2z
	"/>
</svg>
