<?xml version="1.0" encoding="utf-8"?>
<!-- Generator: Adobe Illustrator 22.1.0, SVG Export Plug-In . SVG Version: 6.00 Build 0)  -->
<svg version="1.1" id="图层_1" xmlns="http://www.w3.org/2000/svg" xmlns:xlink="http://www.w3.org/1999/xlink" x="0px" y="0px"
	 viewBox="0 0 555 555" style="enable-background:new 0 0 555 555;" xml:space="preserve">
<style type="text/css">
	.st0{fill:#020202;}
</style>
<path class="st0" d="M9.3,491.3c0-4.2,0-8.5,0-12.7c2.7-3.5,5.9-5.8,10.6-5.5c3.9,0,7.7,0,11.6,0c3.5,0,7.1,0,10.6,0
	c10.6,0.6,10.6,0.6,9.5-9.9c0-0.2-0.1-0.3-0.1-0.5c0-3.5,0-7.1,0-10.6c0.2-3.9,0.5-7.7,0.7-11.6c0.4-3.5,0.8-7.1,1.2-10.6
	c1.4-7.4,2.8-14.7,4.2-22.1c1-3.9,1.9-7.7,2.9-11.6c1.1-3.5,2.2-7.1,3.2-10.6c2.7-7.4,5.3-14.9,8-22.3c3.4-7.4,6.8-14.8,10.2-22.2
	c2.4-3.5,4.3-7.2,3.3-11.7c0-3.5,0-7,0-10.5c0-3.9,0-7.8,0.1-11.7c0.4-3.5,0.7-7,1.1-10.6c2-7.4,3.9-14.9,6.7-22.1
	c3.9-7.5,8.2-14.7,13.4-21.4c2-1.4,1.5-2.2-0.4-3.3c-2.7-1.5-5.2-3.4-7.9-5.2c-1.3-1.4-2.7-2.8-4-4.2c-5.5-7.2-9.5-15.2-12.7-23.6
	c-0.8-3-1.6-6-2.5-9c-0.6-2.9,0.7-6.9-3.1-8.1c-9-2.9-16.6-8.2-23.7-14.2c-3.1-4-6.2-8.1-9.3-12.1c-1.6-3.3-3.2-6.7-4.8-10
	c-0.9-3.9-1.8-7.8-2.8-11.7c-0.2-3.5-0.4-6.9-0.7-10.4c0.5-3.9,0.9-7.7,1.4-11.6c1-3.2,2-6.3,3.1-9.5c4.1-8.3,10.4-15.1,15.5-22.8
	c2.9-4.1,5.9-8.1,8.8-12.2c0.3-0.4,0.6-0.8,0.9-1.2c2.3-3.1,4.6-6.1,6.9-9.2c5.4-7.3,10.8-14.5,16.2-21.8
	c6.3-6.6,13.1-12.4,21.3-16.6c3.9-1.1,7.8-2.1,11.6-3.2c4.3,0,8.6-0.2,12.9,0.2c4,0.3,7-1.1,9.3-4.1c6.9-4.6,14.4-7.8,22.2-10.6
	c3.5-0.6,7-1.1,10.5-1.7c3.9-0.2,7.8-0.5,11.7-0.7c3.5,0.1,7,0.3,10.5,0.4c3.9,0.7,7.8,1.3,11.7,2c7.9,2.4,15.3,6.1,22.2,10.6
	c0.4,0.3,0.7,0.6,1.1,0.9c2.3,3.6,5.9,3.5,9.5,3c3.9,0,7.8,0,11.7,0c3.5,0.9,6.9,1.9,10.4,2.8c8.6,3.8,15.6,9.9,22.1,16.6
	c8.2,11.5,16.5,23,25.4,33.9c2.7,3.6,5.3,7.2,8,10.9c3.1,4.2,6.3,8.4,9.2,12.7c1.3,2,2.5,2.2,4.7,1.2c7.2-3.4,13.8-2.1,20.1,2.7
	c7.1,5.4,14.4,10.5,21.5,15.8c2.6,1.9,4.3,5.7,8.4,4.3c2.9-1,5.7-2.2,8.6-3.4c1.8-0.4,3.5-0.8,5.3-1.3c3.9-0.7,7.8-1.4,11.7-2.2
	c3.5-0.3,7-0.7,10.5-1c3.9,0,7.8,0.1,11.6,0.1c3.5,0.4,7,0.8,10.5,1.2c3.9,0.9,7.8,1.9,11.7,2.8c0.7,0.1,1.4,0.2,2.1,0.3
	c2.7,1.1,5.5,2.1,8.2,3.3c1.6,0.7,2.8,0.8,4.3-0.4c6.3-4.9,12.7-9.8,19.1-14.7c3.6-2.5,7.1-5.1,10.7-7.6c11.3-3.7,17.7-1.8,25.3,7.6
	c1.2,3.4,2.3,6.9,2.3,10.5c0,3.9,0,7.8,0,11.7c0,3.5,0,7,0,10.5c0,3.9,0,7.8,0,11.7c0,3.5,0,7,0,10.5c0,3.9,0,7.8,0,11.7
	c0,3.5,0,7,0,10.5c0,3.1,0,6.1,0,9.7c1.9-0.5,3.5-0.9,5.1-1.4c3.9-0.7,7.7-1.4,11.6-2.1c3.9,0.1,6.1,2.9,8.5,5.4c0,1.8,0,3.5,0,5.3
	c-1.7,3.8-4.6,6-8.6,6.7c-3.9,0.8-7.7,1.6-11.6,2.4c-6.7-0.6-5.2,4-5,7.8c0,3.5,0,7,0,10.5c0.6,3.8-3.8,10.2,5,9.9
	c3.9,0.8,7.7,1.6,11.6,2.4c3.7,0.6,6.3,3,8.6,5.7c0,2.1,0,4.2,0,6.3c-2.4,2.5-4.6,5.3-8.5,5.4c-3.9-0.7-7.7-1.4-11.6-2.1
	c-1-0.3-2-0.6-3-0.9c-4-1.3-6.6-0.8-7.8,4.2c-1.2,4.9-4.2,9.2-6.8,13.5c-1.5,1.8-3,3.6-4.5,5.5c-3.9,3.4-7.8,6.9-12.5,9.3
	c-2.2,1.1-2,2.2-0.7,3.9c3.4,4.6,5.8,9.9,8.1,15.1c2.6,7.2,4.1,14.6,5.1,22.2c0,3.6-0.7,7.2,0.5,10.7c3.7,7.4,7.5,14.7,11.2,22.1
	c1.7,3.9,3.4,7.8,5.1,11.6c2.5,7.4,5,14.8,7.6,22.2c1,3.5,2,7.1,3,10.6c0.8,3.9,1.7,7.7,2.5,11.6c1.1,7.4,2.3,14.9,3.4,22.3
	c0.2,3.5,0.3,7,0.5,10.4c0,3.9-0.1,7.8-0.1,11.6c0,3.6-3.1,7.4,1,10.6c3.5,4.4,5.1,9.8,7.4,14.8c0,5.3,0,10.6,0,15.9
	c-4.5,11.2-11.5,20.1-23.2,24.3c-2.5,0.4-4.9,0.8-7.4,1.2c-3.9,0-7.8,0-11.7,0c-3.5,0-7,0-10.5,0c-3.9,0-7.8,0-11.7,0
	c-3.5,0-7,0-10.5,0c-3.9,0-7.8,0-11.7,0c-3.5,0-7,0-10.5,0c-3.9,0-7.8,0-11.7,0c-3.5,0-7,0-10.5,0c-3.9,0-7.8,0-11.7,0
	c-3.5,0-7,0-10.5,0c-3.9,0-7.8,0-11.7,0c-3.5,0-7,0-10.5,0c-3.9,0-7.8,0-11.7,0c-3.5,0-7,0-10.5,0c-3.9,0-7.8,0-11.7,0
	c-3.5,0-7,0-10.5,0c-8.6,0.2-16.1-2.5-22.2-8.5c-1.3-1.6-2.8-3.1-4-4.8c-3.3-4.8-3.2-4.9-6,0.4c-0.6,1.1-1.1,2.1-1.6,3.2
	c-5.7,6-12.4,9.6-20.9,9.5c-15.3-0.1-30.6-0.1-45.9,0c-36.9,0.1-73.9,0.1-110.8,0.2c-3.5,0-7,0-10.5,0c-3.9,0-7.8,0-11.7,0
	c-3.5,0-7,0-10.5,0c-3.9,0-7.8,0-11.7,0c-3.5,0-7,0-10.5,0c-16,0.5-30.9-2.7-43.8-12.7c-9.6-7.9-16.5-17.6-20.2-29.5
	C11.1,496.4,11.3,493.5,9.3,491.3z M320,267.9c-3.9,0.4-7.8,1-11.6,2.4c-4,0.5-7.5-0.4-10.4-3.5c-0.5-1.3-0.9-2.5-1.4-3.8
	c0-7.9,5.9-9.2,11.8-10.6c13.8-1.3,13.8-1.3,13.7-14.4c0-0.9,0-1.8,0-2.6c0-13,0-13-13.2-14.6c-0.2,0-0.3,0-0.5,0c-1-0.3-2-0.8-3-1
	c-6.3-1.4-9.6-5.4-8.4-10.4c1.2-5.2,5.6-7.3,12-6c4.2,0.9,8.5,1.6,13.2,2.5c0-3.7,0-7,0-10.3c0-3.2,0-6.5,0-10.7
	c-4.5,4.1-8.1,7.3-12.4,9.6c-4.6,2.4-10.8,3.4-13.6,7.1c-3,3.9-2.9,10.2-4.2,15.5c-0.1,0.5-0.2,1-0.3,1.5c-1.7,3.9-3.4,7.7-5.1,11.6
	c-5,7.9-10.4,15.5-19,19.8c-2.3,1.2-1.6,2.1-0.4,3.5c5.6,6.4,9.5,13.8,13.5,21.2c2.7,7.2,4.9,14.6,6.7,22.1
	c0.4,3.5,0.7,7.1,1.1,10.6c0,3.9,0,7.7,0.1,11.6c0,3.5,0,7.1,0,10.6c-1,4.4,0.9,8.1,3.3,11.6c5.2,12,10.4,24,15.6,36
	c0.8,2.8,1.5,5.6,2.3,8.4c1.8,6.2,3.7,12.4,5.9,19.9c3.2-11.5,7.3-21.4,11.1-31.4c3.9-7.4,7.8-14.8,11.8-22.2
	c1.2-3.5,0.5-7.1,0.5-10.7c0.6-3.8,1.2-7.6,1.8-11.5c2-7.8,5.1-15.2,8.8-22.4c4.2-5.6,4.3-5.7-1.6-9.5c-5.4-3.4-9.5-8.1-13.6-12.9
	c-1.2-1.8-2.4-3.6-3.5-5.5c-0.8-1.6-1.6-3.3-2.3-4.9C325.8,266.4,325.8,266.4,320,267.9z M271.4,397.1c0-28.5,0.2-57.1-0.1-85.6
	c-0.2-22.1-8.9-40.6-25.2-55.6c-1.9-1.8-3.9-2.6-6.6-2.6c-35.2,0.1-70.5,0.1-105.7,0c-2.2,0-4,0.5-5.7,2
	c-13.6,12.2-22.2,27.2-24.9,45.3c-2.1,14.4-0.9,28.8-0.9,43.3c-0.2,47,0,94.1-0.2,141.1c0,4.1,0.9,5.7,5.1,5.2
	c3.3-0.4,6.7-0.1,10-0.1c6.3,0.1,10.1,3.1,10.2,8.2c0.2,5.3-3.8,8.7-10.3,8.7c-10.4,0-20.8-0.1-31.2,0c-5.7,0.1-9.4,3.7-9.2,8.7
	c0.1,4.8,3.7,8.2,9.2,8.2c22,0.1,44,0.1,66,0c5.9,0,9.1-3.3,9.2-9.2c0.1-5.3,0-10.6,0.1-15.9c0.1-4.9,2.8-7.8,7.6-8.7
	c7.2-1.3,9.2-3.6,9.3-10.9c0.1-12-0.1-24,0.1-35.9c0.1-3.6-1.2-4.5-4.7-5.2c-19-3.3-31.3-14.1-35.9-33.2
	c-2.4-10.1-2.3-20.3-0.8-30.4c3-20.7,9.4-40.1,23.2-56.3c16-18.9,37.1-19.2,52.8-0.2c18.7,22.6,26.1,49.4,23.9,78.3
	c-1.9,24.9-14.4,37.5-38.4,42c-3.2,0.6-3.3,2.2-3.3,4.7c0.1,12.2,0,24.3,0,36.5c0,7,2.2,9.5,9,10.6c5.1,0.9,7.7,3.7,7.9,9
	c0.1,4.8,0,9.5,0,14.3c0.1,7.6,3,10.5,10.6,10.6c21.1,0,42.3,0,63.4,0c6.7,0,10.5-3.2,10.5-8.4c0-5.3-3.9-8.4-10.5-8.4
	c-10.4,0-20.8,0.1-31.2-0.1c-5.4-0.1-8.9-3.6-9-8.4c0-4.8,3.5-8.3,8.9-8.5c3.9-0.1,7.8-0.3,11.6,0c4,0.4,4.9-1,4.9-4.9
	C271.4,456,271.5,426.6,271.4,397.1z M250.5,236.2c5.5,1.1,9.6-0.8,13.3-4.1c5-4.6,8.5-10.4,10.7-16.7c7.5-21,7.8-42.1-0.7-62.9
	c-7.7-18.7-15.2-37.5-21.7-56.6c-4.1-12.2-9.1-24-15.8-35c-9.4-15.6-22.6-25.2-41.1-26.9c-25.1-2.3-45.5,5-58.5,28
	c-3.8,6.8-7.3,13.6-10.1,20.9c-8.4,21.6-15,43.9-24.8,65c-7.8,16.7-9.5,34.1-6.7,52.1c1.8,11.8,5.7,22.9,14.4,31.7
	c3.7,3.8,8.1,5.9,14.1,4.6c-4.2-7.4-4.8-15.3-3.9-23.2c0.8-6.6,2-13.2,4.1-19.6c6.8-21.3,16.5-40.9,34.3-55.3
	c18.8-15.3,39.1-15.4,57.8-0.2c18,14.6,28.1,34.4,34.6,56.2C254.4,208,257.6,222.1,250.5,236.2z M342.5,263.2
	c4.5,15,15.1,23.2,29.3,27.1c23.4,6.5,47.4,5.8,71.3,4.9c12-0.5,23.9-1.8,35.3-5.8c12.9-4.5,22.2-12.5,26.3-26.2
	c-2.7-0.6-5.3-1-7.8-1.9c-4.4-1.6-6.4-5-5.5-9.6c1-4.5,4.2-6.6,8.9-6.7c2.5-0.1,5.5,2.8,7.2,0.1c1.2-1.9,0.5-5.1,0.6-7.7
	c0-1.1,0-2.1,0-3.2c-0.1-7-0.1-7-6.9-6.2c-4.8,0.5-9-2.3-9.9-6.8c-0.9-4.4,1.9-8.6,6.7-9.9c1-0.3,2.1-0.4,3.1-0.6
	c2.7-0.3,3.7-1.2,2.8-4.3c-4.1-14.2-10.4-27.2-20.5-38.2c-5-5.4-10.5-10.2-17.7-13.9c0,5.2,0.1,9.7,0,14.3c-0.2,5.3-3.8,8.9-8.6,8.8
	c-4.6-0.1-8-3.6-8.2-8.6c-0.2-3.5,0-7,0-10.6c0-12.8,0-12.6-13.1-13.9c-3.1-0.3-3.9,0.4-3.8,3.5c0.2,12.1,0.1,24.3,0,36.5
	c0,6.2-3.3,10-8.4,10c-5.1,0-8.4-3.8-8.5-10c-0.1-9.3,0-18.7,0-28c0-14.1,0-14-13.6-10.3c-2.7,0.7-3.5,2-3.4,4.7
	c0.2,5.6,0.1,11.3,0,16.9c-0.1,5.9-3.3,9.6-8.2,9.7c-5.1,0.2-8.6-3.7-8.7-9.7c-0.1-4.3,0-8.5,0-13.2c-16.5,8.7-30.1,26.4-36.8,47.4
	c-2.3,7.2-2.3,7.2,5,9.6c4.4,1.4,7.1,5.5,6.3,9.7c-0.8,4.3-4.7,7.2-9.3,6.9c-7.4-0.5-7.4-0.5-7.5,7.2c0,1.4,0,2.8,0,4.2
	c0.1,6.5,0.1,6.5,6.7,5.7c4.9-0.6,9,2.1,10,6.5c1,4.4-1.7,8.7-6.5,10C347.2,262.3,344.9,262.7,342.5,263.2z M364.9,499.4
	c3.6-14.9,16.3-27.2,36.4-26.3c14.3,0.6,14.3,0.1,13.9-14.2c-0.1-2.7-1.1-3.5-3.4-4.2c-10.7-3.2-17.2-10.6-20-21.2
	c-3.9-14.6-1.9-29,2-43.2c2.9-10.6,6.9-20.8,14.9-28.7c9.1-9.1,20.8-9,30,0c3.4,3.4,6.1,7.3,8.2,11.6c7.8,15.8,11.6,32.5,10.4,50
	c-0.8,12-4.1,24-16.2,28.8c-8.7,3.4-10.1,8.3-9,16c0.1,0.5,0.1,1.1,0,1.6c-0.5,3.1,0.9,3.8,3.8,3.8c17.1-0.1,34.2-0.2,51.3,0
	c3.4,0,4.1-1,4-4.1c-0.2-14.1-0.2-28.2,0-42.3c0.1-3.5-1-4.8-4.4-4.3c-1,0.2-2.1,0.1-3.2,0c-5.7-0.2-9.4-3.5-9.4-8.5
	c0-5,3.7-8.3,9.4-8.5c7.5-0.3,7.6-0.3,7.5-7.4c0-3,1.2-6.6-0.6-8.7c-1.7-2-5.3-0.4-8.1-0.7c-4.9-0.5-8.3-4.1-8.2-8.7
	c0.1-4.6,3.5-8,8.5-8.3c1.6-0.1,3.2-0.2,4.8,0c2.6,0.2,3.8-0.4,3.7-3.4c-0.2-8.4,0.2-16.9-0.2-25.4c-0.6-11.5-4.5-21.9-11.1-31.4
	c-2.1-3-4.3-3.7-7.9-3c-29.7,5.8-59.5,5.3-89.4,1.4c-14.1-1.9-14.3-2.3-20.6,10.6c-1.1,2.4-2,4.9-2.9,7.3c-4.4,11.9-2.8,24.4-3,36.6
	c-0.1,7,0,7,6.7,7.1c6.3,0.1,10,3.2,10.1,8.3c0.1,5.3-3.8,9.1-10.2,8.6c-5.5-0.4-7.5,1.3-6.7,6.8c0.4,3.1-0.8,7,0.7,9.2
	c1.5,2.3,5.5,0.5,8.5,0.9c4.6,0.6,7.8,4,7.8,8.5c0,4.4-3.2,8-7.8,8.5c-1.9,0.2-3.9,0.2-5.8,0c-2.4-0.2-3.4,0.5-3.4,3.2
	c0.1,20.4,0,40.9,0.1,61.3c0,1.3-0.5,2.7,1.6,3.2C362.2,491.3,364.2,494.7,364.9,499.4z M153.2,385c-0.2,25,8.8,35.9,28.5,37.4
	c3.5,0.3,7,0.3,10.5,0c17.7-1.4,27.2-10.3,28.2-28c1.3-22.6-4.3-43.7-17.6-62.2c-10.5-14.6-21.3-14.5-31.9,0
	C158.8,348.8,154.1,367.8,153.2,385z M187.4,236.6c12.1-0.2,25.8,0.5,39.3-3.1c8.4-2.2,11.6-6.2,10.9-14.9
	c-2.1-26.5-12.4-49.3-32.2-67.2c-12.2-11.1-25.6-10.6-37.8,0.7c-18.4,17.1-28.3,38.7-31.2,63.4c-1.4,11.8,2.9,16.7,14.6,19
	C162.5,236.7,174.1,236.5,187.4,236.6z M297.1,181.3c23.1-9.4,32.3-40.9,18.1-60.3c-13.6-18.6-27.4-37.1-41.4-55.4
	c-5.7-7.5-12.7-13.5-22.9-14.9c2.9,5.6,5.7,10.9,8.2,16.3c10.7,23.1,16.8,48.1,27.5,71.2C292.9,151.8,297.1,165.8,297.1,181.3z
	 M123.5,50.6c-11.5,1.9-18.6,8.6-24.6,16.5c-12.8,17-25.3,34.2-38.2,51.1c-7.8,10.2-10.4,21.4-7.7,33.7
	c2.9,13.4,10.6,23.4,23.6,29.6c0.4-13,2.7-24.9,7.6-36.3c3.3-7.7,6.5-15.5,9.7-23.3C103.5,98.3,109.3,73.3,123.5,50.6z M476.8,524.1
	c13.4,0,26.7,0,40.1,0c7.8,0,13.4-4,15.7-10.8c4.2-12.1-3.6-22.9-16.6-23c-7.8-0.1-7.8-0.1-7.9,6.5c-0.1,6.6-3.2,10.4-8.6,10.4
	c-5.3-0.1-8.8-3.9-8.2-10.6c0.4-5.5-1.5-7.1-6.6-6.4c-3.3,0.4-7.3-0.7-9.7,0.8c-2.1,1.3-0.4,5.5-0.8,8.5c-0.6,4.6-4.2,7.8-8.6,7.7
	c-4.4-0.1-7.8-3.4-8.2-8c-0.2-1.7-0.2-3.5,0-5.3c0.3-2.6-0.5-3.7-3.4-3.6c-6.2,0.2-12.3,0.2-18.5,0c-2.8-0.1-3.6,0.7-3.6,3.5
	c0.2,8.8,0.2,17.6,0,26.4c-0.1,3.4,1,4.1,4.1,4C449.7,524,463.3,524.1,476.8,524.1z M440.6,417.8c-0.8-15.2-3.7-29.4-12.2-41.8
	c-3.5-5.2-6.2-5.3-9.5,0c-10.1,16-14.1,33.5-10.8,52.3c0.7,4.3,3.1,7.8,7.3,9.7c11.6,5.1,22.2-0.4,24.4-12.8
	C440.3,422.6,440.4,419.9,440.6,417.8z M85.4,378.3c-11,27.7-17.8,56-16.6,85.7c0.4,8.4,2,16.7,5.1,24.6c2.1,5.3,5.5,1.4,8.3,1.7
	c3.2,0.3,3.2-1.7,3.2-4C85.4,450.3,85.4,414.3,85.4,378.3z M288.4,378.3c0,36,0,72.1,0,108.1c0,1.2-0.7,2.8,1,3.7
	c5.4,2.9,9.5,1.4,11.5-4.4c0.5-1.5,0.9-3,1.3-4.5c3.6-13.6,3.4-27.4,1.9-41.3C302,418.6,296.7,398.1,288.4,378.3z M339,392.5
	c-5,10-8.4,20.7-11,31.5c-4.5,18.7-7.4,37.6-4.6,57c0.6,4,0.7,8.7,3.6,11.3c1.3,1.1,5.7-1.7,8.7-1.8c3.4-0.2,3.4-1.9,3.4-4.4
	C339,454.8,339,423.6,339,392.5z M415.1,507.4c0-4.2-0.3-8.4,0.1-12.6c0.3-3.9-1.2-4.8-4.8-4.5c-3.8,0.3-7.7,0-11.6,0.1
	c-10.7,0.1-17.4,6.5-17.4,16.8c0,12.8,6.7,16.9,27.9,16.8c5.8,0,5.8,0,5.8-13.4C415.1,509.5,415.1,508.5,415.1,507.4z M508.3,392.2
	c0,23.3,0,46.6,0,69.8c0,10.9,0,10.9,10.6,11.2c0.5,0,1.1-0.1,1.6,0.1c3.6,0.9,4.5-0.8,4.5-4.1c0.1-9.2-0.7-18.2-2.1-27.3
	C520.2,424.8,515.5,408.2,508.3,392.2z M27.8,490.5c2.9,16.3,17.9,30.9,32.5,31.8c-0.7-4.9-1-9.7,0.6-14.5
	c0.8-2.5-2.9-15.4-4.9-16.9c-0.5-0.4-1.3-0.5-2-0.5C45.4,490.5,36.6,490.5,27.8,490.5z M368.2,524c-3.3-7.2-4.3-14.1-4-21.5
	c-3,4.8-7.4,5-12.1,4.8c-4-0.1-8.1-0.1-12.1,0c-5.5,0.1-9.1,3.3-9.3,8c-0.2,4.8,3.7,8.6,9.3,8.7C349.1,524.1,358.2,524,368.2,524z
	 M365.2,144.3c-7.7-5.7-14.8-11.1-22-16.4c-2.5-1.9-4-1.1-4,1.9c-0.1,13.8,0,27.5,0,42.7C346.6,160.9,354.7,151.8,365.2,144.3z
	 M508.1,172.5c0-15.2,0-29,0-42.8c0-3.2-1.7-3.6-4.1-1.8c-6.5,4.8-12.9,9.7-19.4,14.5c-1.4,1.1-2.5,1.9-0.4,3.5
	C493.6,152.8,501.1,161.5,508.1,172.5z M196.7,524c-1.8-4.9-1.9-9.5-1.3-14c0.8-5.7-4.4-5.4-6.8-7.9c-2.4-2.4-3.6,0.8-5.3,1.3
	c-4.3,1.3-5.2,4.3-4.8,8.4c0.3,3.1,0.4,6.3-0.6,9.4c-0.7,2-0.2,2.9,2.1,2.8C185.3,523.9,190.7,524,196.7,524z"/>
<path class="st0" d="M152.8,101.1c4.7-0.1,8.5,3.4,8.7,8c0.1,4.5-3.7,8.6-8.2,8.7c-4.4,0.2-8.5-3.7-8.7-8.2
	C144.5,105,148.1,101.2,152.8,101.1z"/>
<path class="st0" d="M229.2,109.2c0.1,4.5-3.8,8.5-8.3,8.7c-4.5,0.1-8.5-3.8-8.6-8.3c-0.1-4.7,3.5-8.4,8.2-8.5
	C225.3,101,229.1,104.6,229.2,109.2z"/>
<path class="st0" d="M423.9,219.7c8.8,0.1,15.8,6.5,16.6,15.2c0.4,4.1-1,7.2-4.7,9.2c-4.4,2.3-5.3,8.1-1.6,11.7
	c2.8,2.7,6.1,4.7,9.4,6.7c5.4,3.2,6.9,7.9,4.2,12.3c-2.5,4.2-7.3,5.3-12.4,2.4c-4.1-2.3-7.9-6.9-11.9-6.9c-3.8-0.1-7.5,4.7-11.4,6.9
	c-5.4,3-10.2,1.8-12.7-2.8c-2.3-4.4-0.7-8.7,4.3-11.9c3-1.9,6-3.7,8.7-5.9c4.7-3.9,4.1-9.5-1.2-12.6c-3.4-2-4.6-5.1-4.3-8.9
	C407.6,226.1,414.8,219.6,423.9,219.7z"/>
<path class="st0" d="M389.8,211.4c-0.1,4.5-3.9,8.3-8.5,8.2c-4.7,0-8.6-4.1-8.4-8.9c0.2-4.5,4.2-8.2,8.7-8
	C386.2,202.9,389.9,206.8,389.8,211.4z"/>
<path class="st0" d="M465.7,202.8c4.5-0.1,8.4,3.5,8.6,8.1c0.2,4.7-3.7,8.8-8.5,8.8c-4.5,0-8.3-3.8-8.4-8.4
	C457.5,206.7,461.2,202.9,465.7,202.8z"/>
<path class="st0" d="M208.6,219.5c-6.1-0.5-13.2-1.6-19.2-6.1c-1.9-1.4-3.2-1.2-5.1,0.1c-6.6,4.6-14.2,6-22,6c-5.4,0-9-3.4-9.2-8.1
	c-0.1-4.8,3.3-8.2,8.7-8.6c2.4-0.2,4.9-0.3,7.3-0.9c7.9-1.8,10.8-6.6,9.4-14.3c-0.4-2.1-1.8-1.8-2.9-2.3c-4.6-2-6.1-5.6-5.4-10.3
	c1.2-8.6,8.1-14.5,16.8-14.5c8.6,0,15.5,6,16.7,14.6c0.6,4-0.5,7.3-4.1,9.5c-5.9,3.5-6,11.4-0.1,15.3c3.3,2.2,7.2,2.7,11.1,2.9
	c6.6,0.3,10.4,3.6,10.2,8.8C220.4,216.7,216.4,219.7,208.6,219.5z"/>
</svg>
