<?xml version="1.0" encoding="utf-8"?>
<!-- Generator: Adobe Illustrator 22.1.0, SVG Export Plug-In . SVG Version: 6.00 Build 0)  -->
<svg version="1.1" id="图层_1" xmlns="http://www.w3.org/2000/svg" xmlns:xlink="http://www.w3.org/1999/xlink" x="0px" y="0px"
	 viewBox="0 0 555 555" style="enable-background:new 0 0 555 555;" xml:space="preserve">
<style type="text/css">
	.st0{stroke:#FFFFFF;stroke-width:5;stroke-miterlimit:10;}
	.st1{fill:none;stroke:#000000;stroke-width:4;stroke-miterlimit:10;}
</style>
<g>
	<g>
		<path d="M552.6,178.2c-0.3-27.2-17.2-44.1-44.2-44.3c-6.8,0-13.8,0-20.5,0c-5.2,0-10.4,0-15.6,0c-1.2,0-2.4-0.1-3.7-0.1l0-8.9
			c0-9.4,0-18.5,0-27.7c0-31.7-21.3-52.9-52.9-53c-111.3,0-229.1,0-360.4,0c-15.6,0-28.9,5-38.4,14.5C7.4,68.1,2.3,81.4,2.3,97
			c0,49.9,0,100.5,0,149.6l0,41.2c0,5.3,0,9.9,3,12.8c2.8,2.7,6.8,2.9,13,2.9l297.2,0v2.4l-296.5,0c-0.5,0-1.1,0-1.7-0.1
			c-2-0.1-4.5-0.3-6.8,0.8c-0.8,0.4-7.7,3.7-7.7,8.9c0,3.2-0.1,6.5-0.2,9.7c-0.2,10.9-0.5,22.2,1.5,33.1
			c4.4,23.4,24.5,38.6,51.4,38.6c61.6,0,123.3,0,184.9,0l75.5,0c0,1.2,0,2.4-0.1,3.5c-0.1,5.4-0.2,10.6,0.2,15.8
			c0.6,7.9,0.2,15.8-0.1,24.2c-0.6,15.5-1.3,31.6,4.2,47.5h-22c1.5-0.9,2.5-2.2,3.2-3.3c1.4-2.5,1.6-5.4,1.5-7.7c0-7,0-14,0-21
			l0-19.5c0-8.9,0-17.7,0-26.6c0-10.6-6.9-11.8-9.9-11.8c-3.1,0-5.7,0.9-7.5,2.7c-2.1,2.1-3.1,5.1-3.1,9.3c0.1,20.8,0.1,42.8,0,67.2
			c0,2.7,0.3,6.7,3.1,9.4c0.5,0.5,1.2,1,1.8,1.4c-34.5,0-69,0-103.5,0c2.8-1.6,5.4-4.9,5.4-11.7l0-18.2c0-15.7,0-31.3,0-47
			c0-3-0.3-7.4-3.4-10.4c-2-1.9-4.6-2.8-7.8-2.8c-3.9,0.1-10.5,1.9-10.4,13c0.1,7.7,0.1,15.6,0.1,23.2c0,3.1,0,6.3,0,9.4
			c0,3.1,0,6.3,0,9.4c0,7.6,0,15.4,0,23.1c0,3.3,0.3,7.5,3.3,10.4c0.6,0.6,1.2,1.1,2,1.5c-7.1,0-14.1,0-21.2,0c0,0,0,0,0,0
			c-0.5,0-1.1,0-1.6-0.1c-2.3-0.1-5.1-0.2-7.7,1.1c-2.6,1.3-6.8,5.1-6.8,9.4c0,4.5,4.2,8.2,6.4,9.5c2.4,1.4,5.1,1.3,7.3,1.2
			c0.5,0,1-0.1,1.5-0.1c0,0,0,0,0,0c15.6,0,31.2,0,46.9,0c40.2,0,81.8,0,122.8,0.1c3.4,0,9.8,0,14-5.3c9.5,6.3,20,7,29.4,7
			c0.3,0,0.6,0,0.9,0c30.1-0.1,60.6-0.1,90.2-0.1c17.4,0,34.8,0,52.2,0c4.1,0,8.7,0,13.1-1c20.3-4.6,32.5-21,32.5-44
			c0-65.8,0-131.7,0-197.5l0-68.8c0-2.1,0-4.3,0-6.4C552.7,188.1,552.7,183.1,552.6,178.2z M23.2,328.4c-0.1-0.8,0-1.2,0-1.5
			c0.3-0.1,0.9-0.1,1.9-0.1c10.6,0.2,21.4,0.1,31.8,0.1c4.2,0,8.4,0,12.6,0h246.2v48.7l-71.8,0c-62.9,0-125.8,0-188.7,0
			c-19.6,0-31.9-12.2-31.9-31.9c0-1.6,0-3.1,0-4.7C23.4,335.5,23.4,332,23.2,328.4z M315.7,178.7c0.6,23.2,0.5,46.8,0.3,69.7
			c-0.1,9.7-0.1,19.7-0.1,29.6l0,3.8H23.2l0-53.5c0-43.4,0-86.8,0-130.2c0-21.3,11.7-33,32.8-33c32.3,0,64.6,0,96.9,0
			c85.9,0,174.7,0.1,262-0.3c9.5,0,18.3,3.6,24.4,10c5.6,5.9,8.4,13.6,7.9,22.1c-0.5,9.3-0.4,18.4-0.3,28c0,2.9,0.1,5.9,0.1,8.9
			h-4.4c-8.4,0-16.9,0-25.1,0.1c-18.8,0.1-38.2,0.2-57.2-0.2c-12.6-0.3-23.6,4-31.9,12.3C320,154.6,315.3,166.4,315.7,178.7z
			 M334.9,322.3L334.9,322.3l0-57.5c0-28.7,0-57.5,0-86.2c0-16.9,8.9-25.8,25.6-25.8c48.6-0.1,98.1-0.1,147.1,0
			c16.9,0,25.9,8.9,25.9,25.6c0.1,101.3,0.1,195.5,0,288.1c0,16.5-8.8,25.3-25.4,25.3c-53.3,0.1-101.8,0-148.5,0
			c-16,0-24.8-8.9-24.8-25.1c0-34,0-67.9,0-101.9L334.9,322.3z"/>
		<path class="st0" d="M235.2,372.3c11.6,0.1,21.4-9.5,21.4-21c0.1-11.5-9.6-21-21.3-21c-11.7,0-20.8,9-20.9,20.6
			C214.3,362.7,223.6,372.3,235.2,372.3z M235.3,341.2c5.4-0.1,9.8,4.2,10,9.6c0.2,5.9-4,10.3-9.8,10.3c-5.4,0-10.1-4.3-10.3-9.5
			C224.9,346.3,229.8,341.2,235.3,341.2z"/>
		<path class="st0" d="M436.6,486c9.4,0,17.4-7.8,17.4-17.1c0.1-9.4-7.8-17.1-17.4-17.1c-9.5,0-16.9,7.3-17,16.8
			C419.6,478.1,427.1,485.9,436.6,486z M436.6,460.6c4.4-0.1,8,3.4,8.1,7.8c0.1,4.8-3.2,8.3-8,8.4c-4.4,0-8.2-3.5-8.4-7.7
			C428.2,464.8,432.2,460.7,436.6,460.6z"/>
	</g>
	<path class="st1" d="M509.6,445.4H361.1c-6.7,0-12.2-5.5-12.2-12.2V177.9c0-6.7,5.5-12.2,12.2-12.2h148.5c6.7,0,12.2,5.5,12.2,12.2
		v255.2C521.8,439.9,516.3,445.4,509.6,445.4z"/>
</g>
</svg>
