<?xml version="1.0" encoding="utf-8"?>
<!-- Generator: Adobe Illustrator 22.1.0, SVG Export Plug-In . SVG Version: 6.00 Build 0)  -->
<svg version="1.1" id="图层_1" xmlns="http://www.w3.org/2000/svg" xmlns:xlink="http://www.w3.org/1999/xlink" x="0px" y="0px"
	 viewBox="0 0 555 555" style="enable-background:new 0 0 555 555;" xml:space="preserve">
<g>
	<path d="M250.6,554.2c-3,0-5.9-0.1-8.9-0.2c-44.5-1.9-87.5-20.4-120.9-52.3c-33.5-32-54.5-74.5-59-119.7
		c-2.1-21.3,0.4-42.8,3.4-64.7c1.6-11.6,7.2-21.2,15.8-27.1c7.8-5.3,17.3-7,26.6-4.7c20.3,5,29.9,22.6,25,45.9
		C120.5,389.4,145,444,195.1,470.7c49.8,26.5,109.6,17,148.8-23.5c41.6-43.1,46.6-110,11.7-159.1c-34.5-48.6-98.8-66-153.1-41.3
		c-2.4,1.1-4.7,2.3-7.2,3.6c-1.7,0.9-3.5,1.9-5.4,2.8c-17.8,8.8-37.4,3.1-46.7-13.6c-9.4-16.9-3.7-36.6,13.5-46.8
		c22.5-13.3,48.1-21.7,76.1-25c-0.6-1.1-1.2-2.3-1.8-3.4l-3-5.5c-15.5-28.3-31.5-57.5-38.2-90.8c-6.1-30.2,5-52,32.1-63.1
		c11.8-4.8,19.8-1.8,25.7,9.7c20.8,40.2,42.3,80.8,63,120.1c0.7,1.3,1.4,2.6,2,3.9c-1.2-7.4-2.2-14.8-3-22.2
		c-1.9-20.3-1.4-39,1.5-55.5c2-11.6,9.5-22.2,20.5-29.3c11.7-7.5,26.1-10.1,38.4-6.9c6.8,1.8,10.7,10,11.6,14.9
		c6.7,36.5,13.3,73.7,19.6,109.6c1,5.7,2,11.5,3.1,17.2c3-8.5,6.2-17.1,10.6-25.2c15.7-28.5,42.5-36,73.4-20.5l5.4,2.7l-1.1,5.9
		c-1.9,9.9-3.8,19.7-5.6,29.6c-4.1,21.6-8.4,44-12.4,66c-3.9,21.5-7.7,43.3-11.3,64.5c-6.2,35.6-12.6,72.4-19.5,108.5
		c-8.9,46.2-34,87.2-70.8,115.4C338.9,539.9,295.6,554.2,250.6,554.2z M99.5,300.6c-3.4,0-6.7,1-9.5,2.9c-4.8,3.3-8,9-9,16
		c-2.9,21-5.3,41.4-3.3,61c8.5,84.8,80.8,154.1,164.6,157.6c92.6,3.9,169-54.9,185.9-143c6.9-36,13.3-72.7,19.5-108.2
		c3.7-21.2,7.5-43.1,11.4-64.6c4-22.1,8.3-44.5,12.4-66.2c1.5-7.8,3-15.6,4.5-23.4c-20.5-8.3-36.3-2.8-46.8,16.4
		c-4.3,7.9-7.5,17-10.6,25.8l-0.2,0.6c-1.8,5.1-3.1,10.2-4.9,16.8c-0.8,3.2-1.8,6.8-2.9,10.7l-8.8,31.8l-6.8-32.3
		c-0.6-2.7-1-4.9-1.4-6.8c-0.7-3.4-1.3-5.9-1.7-8.5c-2.1-11.7-4.1-23.4-6.2-35.1c-6.4-35.9-12.9-73.1-19.6-109.6
		c-0.1-0.7-0.7-1.8-1.1-2.5c-7.8-1.6-16.9,0.3-24.5,5.2c-7.2,4.7-12.1,11.4-13.4,18.6c-2.7,15.1-3.1,32.3-1.3,51.2
		c1.5,15.3,4.5,30.9,7.4,46.1c1.3,6.6,2.6,13.5,3.8,20.3l1.3,7.5l-15,3.4l-2.9-5.3c-0.4-0.7-0.8-1.5-1.2-2.2c-0.9-1.7-1.8-3.3-2.7-5
		c-6.6-12.5-13.2-24.9-19.8-37.4c-20.8-39.3-42.3-80-63.1-120.3c-1.1-2.1-1.8-3-2.1-3.3c-0.4,0-1.4,0.2-3.4,1
		C208,28,201,41.9,205.6,64.9c6.2,30.9,20.9,57.8,36.5,86.3l3,5.5c1.6,2.9,3.2,5.9,4.9,9.1l8.3,15.3l-15.9,1.7
		c-2.1,0.2-3.6,0.4-5.1,0.6c-26.7,2.8-51.1,10.6-72.4,23.2c-9.8,5.8-12.9,15.9-7.7,25.3c5.1,9.2,15.4,12,25.6,7
		c1.6-0.8,3.3-1.7,5-2.6c2.6-1.4,5.2-2.8,8-4c61.2-27.8,133.8-8.2,172.7,46.7c18.9,26.7,28,59.4,25.6,92.2
		c-2.4,32.8-16.2,63.8-38.9,87.2c-21.5,22.3-49,36.6-79.5,41.4c-30.5,4.8-61-0.3-88.4-14.9c-27.6-14.7-48.9-37.3-61.5-65.3
		c-12.6-28-15.8-59.5-9.1-91.2c2.2-10.4,1.7-23.5-13.1-27.1C102.4,300.8,100.9,300.6,99.5,300.6z"/>
	<path d="M253.6,251.3c60.5-0.2,109.9,49,109.8,109.1c-0.1,60.1-48.5,108.8-108.5,109.2c-60.7,0.4-110-48-110.4-108.5
		C144.1,300.9,193.2,251.5,253.6,251.3z M189.6,338.7c0,15.7,0,29.4,0,44.1c14.4,0,27.8,0,42.6,0c0,14.8,0,28.5,0,42.6
		c15.1,0,28.8,0,43.8,0c0-14.5,0-28.2,0-43.3c15,0,28.7,0,42.2,0c0-15.1,0-28.8,0-43.6c-14.4,0-27.8,0-42.5,0c0-14.9,0-28.6,0-42.8
		c-15,0-28.7,0-43.8,0c0,14.4,0,28.2,0,43C217.1,338.7,203.7,338.7,189.6,338.7z"/>
</g>
</svg>
