<?xml version="1.0" encoding="utf-8"?>
<!-- Generator: Adobe Illustrator 22.1.0, SVG Export Plug-In . SVG Version: 6.00 Build 0)  -->
<svg version="1.1" id="图层_1" xmlns="http://www.w3.org/2000/svg" xmlns:xlink="http://www.w3.org/1999/xlink" x="0px" y="0px"
	 viewBox="0 0 555 555" style="enable-background:new 0 0 555 555;" xml:space="preserve">
<style type="text/css">
	.st0{fill:#FFFFFF;}
</style>
<path d="M551.8,320.7c1-2.6,1.8-5.2,2.5-7.9c0-2.5,0-5,0-7.5c-1-2.6-1.7-5.2-2.5-7.8v4.6c-4.2-11-11.5-18.8-22-23.9
	c-1.2-0.6-1.6-3.9-1.6-6c-0.1-37.5-0.1-75.1-0.1-112.6c0-32.1,0.1-64.3,0-96.4C528.1,33.7,514,14,486,3.9c-0.5-0.2-1-0.7-1.5-1
	h-52.3c-1.3,0.6-2.5,1.4-3.8,1.9c-16.8,5.9-29.3,16.9-35.1,33.7c-2.9,8.4-6.5,14.1-15.5,15.6c-1.2,0.2-2.2,1.1-3.3,1.7
	c-19.3,11.1-30.2,36.2-25.3,57.9c1.3,5.5,5.2,8.7,10.7,8.7c26.3,0.2,52.7,0.2,79,0c6.6,0,10.7-4.3,11.1-11c0.3-4.8,0.4-9.6,0-14.3
	c-2-21.9-13.1-37-33.8-45c-1.5-0.6-2.9-1.2-4.2-1.8c3.9-15.5,17.8-26.4,33.9-27c7.3-0.2,14.5-0.2,21.8-0.1
	c23.3,0.2,38.9,16,38.9,39.4c0,69.1,0,138.1,0,207.2c0,2-0.2,4-0.4,6.7c-2.7,0-4.9,0-7.2,0c-72.2,0-144.4,0.1-216.6-0.1
	c-4,0-8-2.2-12.1-3.4c-5.9-1.7-11.8-4.8-17.7-4.8c-32.1-0.5-64.3-0.5-96.4,0.1c-5.9,0.1-11.7,3.4-17.6,5.2c-3.4,1.1-6.9,3-10.3,3
	c-29,0.2-58.1,0.7-87.1-0.1c-19.1-0.5-32.5,6.3-39.8,24.2v21.2c4.2,9.3,10.4,16.7,19.9,21.1c1.4,0.6,2.3,3.6,2.3,5.4
	c0.2,11.6,0.2,23.2,0.1,34.8c-0.1,30.4,8.2,58,26.6,82.4c2.5,3.4,2.6,5.9,0.6,9.4c-5,8.6-9.9,17.3-14.5,26.1
	c-10.8,20.7-4.1,40,17.1,50c0.5,0.2,0.9,0.7,1.4,1.1h21.2c11-4,18-12.1,23.1-22.3c3.2-6.3,6.7-12.3,10.3-18.8
	c36.1,13.8,73.6,8,110.5,8.6c56.8,0.8,113.6,0.1,170.4,0.2c17.6,0,34.7-2.2,51.7-9c3.5,6.2,7.2,12.2,10.2,18.4
	c5.1,10.4,12.2,18.7,23.3,22.8H497c3.8-2.3,8.1-4.2,11.5-7.1c12.6-11,15.6-27.3,7.9-42.3c-4.8-9.4-10.1-18.5-15.4-27.7
	c-1.8-3.2-2.2-5.6,0.3-8.9c19.1-25.5,27.5-54.4,26.9-86.1c-0.2-10.8-0.2-21.6,0.1-32.3c0-1.8,1.4-4.4,2.9-5.1
	c10.2-4.9,16.6-12.7,20.6-23.4V320.7z M415.5,75.5c8.7,5.7,13.2,13.9,12.8,24.9H371c-0.3-11.4,4.3-19.7,13.4-25.3
	C394.8,68.7,405.4,68.8,415.5,75.5z M144.8,304.3c0.1-10.3,5-15.1,15.4-15.1c29.8,0,59.7,0,89.5,0c10.8,0,15.7,4.9,15.7,15.5
	c0,33.8,0,67.6,0,101.3c0,2.3,0,4.5,0,7.4H144.7c0-25.2,0-50,0-74.9C144.7,327.1,144.7,315.7,144.8,304.3z M21.8,310.5
	c0.1-7.6,6.1-12.6,15.3-12.6c25.9,0,51.7,0,77.6,0c2.6,0,5.3,0,8.2,0v25.5c-2.3,0.2-4.5,0.4-6.6,0.4c-26.3,0-52.6,0-78.8,0
	C28.3,323.7,21.7,318.1,21.8,310.5z M76.2,525.9c-3.7,5.9-10.7,7.3-16.4,4.1c-5.7-3.2-8.5-10-5.6-16c4.5-9.2,9.8-18.1,14.9-27.5
	c7.2,5.2,13.8,10,20.9,15.2C85.4,509.8,81.2,518,76.2,525.9z M492.2,530c-5.7,3.2-12.8,1.7-16.3-4.1c-4.8-7.9-9.1-16.1-13.7-24.3
	c7.1-5.1,13.7-9.9,20.9-15c5.1,9.4,10.4,18.2,14.9,27.5C500.8,520,497.9,526.8,492.2,530z M521.2,322.8c-2.5,0.7-5.3,0.9-8,0.9
	c-30.5,0.1-61,0-91.5,0.1c-8.8,0-13.8,5.6-11.9,13.3c1.6,6.3,6.3,8.1,12.3,8.1c25.3,0,50.6,0,75.9,0c2.6,0,5.3,0,8.4,0
	c0.1,31.9,3.4,63.4-12.7,92.3c-21.2,38.1-53.6,59.6-97.1,60.3c-80.7,1.1-161.4,0.9-242.1,0.2c-58.8-0.6-107.1-49.6-109-109
	c-0.5-14.3-0.1-28.6-0.1-43.3h77.7c0,1.9,0,3.9,0,5.9c0,23.2,0,46.5,0,69.7c0,10.9,3.6,14.6,14.5,14.6c44.6,0,89.2,0,133.8,0
	c12.1,0,15.3-3.4,15.3-15.7c0-24.7,0-49.3,0-74.9c10,0,19.7,0,29.3,0c2.7,0,5.4,0.2,8.1-0.2c5.9-0.8,9.9-5.5,9.6-11.1
	c-0.3-5.8-4.2-9.9-10.5-10c-11.8-0.2-23.6-0.1-36-0.1v-25.9c1.7,0,3.6,0,5.6,0c73.8,0,147.7,0,221.5,0.1c1.7,0,3.3-0.1,5,0.2
	c6,1,10.5,6.1,10.8,12C530.5,315.7,526.8,321.2,521.2,322.8z"/>
<path d="M371.9,323.8c6.1,0.2,10.5,4.8,10.4,10.8c-0.2,5.8-5.2,10.6-11,10.4c-5.9-0.2-10.4-5-10.2-11
	C361.2,327.9,365.7,323.7,371.9,323.8z"/>
<rect x="-0.3" y="0.3" width="283.9" height="554.1"/>
<path class="st0" d="M286.3,453.1c-69.7,0-139.4,0-209.5,0c0-18.6,0-38,0-56.2c70.4,0,140,0,209.5,0v-25.7
	c-33.7-0.4-67.3-0.8-101-1.1c-34-0.3-67.9-0.1-101.9-0.1c-0.8-13.7,6.7-26.7,21.7-31.5c15.1-4.8,31.3-9.1,47-9.1
	c44.7-0.2,89.4,1.5,134.2,2.5v-21.4c-21.1-0.4-42.1-0.9-63.2-1.3c-3.7-0.1-7.4-0.5-11.3-0.8c0-5,0.1-8.7,0-12.4
	c-0.9-37.9-14.3-70.9-41.9-98.1c-23.6-23.4-53.7-33.8-86.2-38.7c-7.2-1.1-10.9-3.5-12.6-10.8c-1.7-7.1-5-14.1-8.8-20.5
	c-5.7-9.7-14.4-15.9-26.6-15.2c-12,0.8-19.5,8.4-22.8,18.5c-4.2,12.8-8.6,26.2-9.1,39.4c-4,111.9-3.9,223.8,1.9,335.7
	c0.2,4.3-0.3,8.7-1.3,12.9c-3.3,14.4,2.1,26.1,15.1,29.4c9.4,2.4,19.3,3.9,29,4.4c15.6,0.8,23-5.5,24.1-20.4c1.4-18.2,2-36.4,3-55.9
	c70.2,0,140.3,0,210.6,0V453.1z M78,326.2c0-22.1,0-46.2,0-69.1c20.5,16.9,41.4,34.1,60.6,50C119.9,313,99,319.6,78,326.2z
	 M77.8,180.2c66.4,3.9,124.8,68.4,111.4,122.3C139.3,298.4,73.4,226.6,77.8,180.2z M49.8,510.6c-0.1,6,0,12,0,18.3
	c-8.4,0-15.4,0.5-22.2-0.3c-2-0.2-5-3.9-5.1-6.2c-0.5-7,0.2-14.1,0.2-21.2c0.8-65.4,1.5-130.8,2.3-196.2c0.5-41,0.8-82,1.8-123
	c0.3-10.7,2.7-21.5,4.8-32.1c0.9-4.4,3.5-8.4,5.9-13.8c9.5,9.3,11.7,19.9,12.2,30c1.7,35.5,3.1,71.1,2.9,106.6
	C52.3,352,50.8,431.3,49.8,510.6z"/>
</svg>
