<?xml version="1.0" encoding="utf-8"?>
<!-- Generator: Adobe Illustrator 22.1.0, SVG Export Plug-In . SVG Version: 6.00 Build 0)  -->
<svg version="1.1" id="图层_1" xmlns="http://www.w3.org/2000/svg" xmlns:xlink="http://www.w3.org/1999/xlink" x="0px" y="0px"
	 viewBox="0 0 555 555" style="enable-background:new 0 0 555 555;" xml:space="preserve">
<path d="M540.1,199.5c-6.4-22.1-15.6-43.4-27.3-63.1c-20.7-34.8-50.9-65.9-87.4-89.7C357.2,2.1,262.3-8.2,183.6,20.3
	c-55,19.9-99.8,55.1-133.2,104.5C23.7,164.3,8.3,209,4.6,257.7c-2.6,35,1.5,69.4,12.8,105c6.8,21.4,18.1,37.7,34.7,49.9
	c32.2,23.7,80.6,21.6,110.3-4.7c5-4.5,9.8-9.1,14.9-14c2.3-2.2,4.7-4.5,7-6.7l5.9-5.6l8.2,4.5c0.9,0.5,1.6,0.9,2.3,1.3
	c40.8,23.8,88.7,17.8,122.1-15.4c17.6-17.5,36.8-36.7,58.6-58.6c2.6-2.7,5.8-6.6,5.8-10.3c0-3.7-3.2-7.6-5.8-10.2
	c-4-4-8.3-8-12.3-11.8c-1.9-1.8-3.8-3.6-5.6-5.3l-6.8-6.5l5.3-7.8c0.3-0.5,0.5-0.8,0.7-1c0.4-0.7,1-1.6,2-2.6l18.8-18.8
	c12.6-12.6,25.3-25.3,37.9-37.9c1.7-1.7,3.3-3.3,4.4-4.8c2-2.7,2.6-6.2,1.7-9.4c-0.5-1.9-2-5.2-6.2-7c-3.7-1.6-8-2.3-13.7,3.5
	c-9.5,9.4-19.6,19.6-31,31.1c-6.6,6.7-13.2,13.5-19.6,20.1c-2.8,2.8-5.5,5.7-8.3,8.4l-7.7,7.9l-36.6-35.5l14.9-14.7
	c5-4.9,10-9.9,14.9-14.8c12.3-12.3,24.7-24.7,37-37l2-2c5.1-5.1,4.8-8.9,3.8-12.2c-1.6-5.3-5.3-7-7.4-7.5c-4-1-8.3,0.3-11.8,3.6
	c-7.7,7.4-15.4,15.2-22.8,22.7c-2.6,2.6-5.2,5.2-7.8,7.9c-7,7.1-14,14.1-21.1,21.3l-17.7,17.8l-7.9-8.1c-2.3-2.3-4.5-4.6-6.6-6.9
	c-4.6-4.8-9-9.4-13.5-13.7c-5-4.8-11-5-15.6-0.5c-5.2,5.2-10.5,10.3-15.8,15.5c-17.1,16.6-34.7,33.8-50.7,51.7
	c-23,25.6-30,56.2-20.9,90.9c1.8,6.7,4.7,13.3,7.7,20.4c1.5,3.3,3,6.8,4.4,10.3l2.7,6.7l-5,5.2c-1.5,1.6-3.1,3.3-4.7,5
	c-3.9,4.2-7.9,8.5-12.5,12.6c-17.2,15.3-40.4,21.2-62.1,15.8C66,399.6,49,384.1,41,362.5c-14.4-39.2-18.5-80.3-12.2-122.2
	c7-46.1,25.3-87.3,54.5-122.4c44.4-53.5,101.4-84,169.3-90.8c62.9-6.3,120.5,9,171.2,45.4c81.2,58.3,119.7,155.7,100.4,254.4
	c-11.7,60.1-42.5,110-91.4,148.5C386.3,512,332,530,271.6,529c-24.2-0.4-49-4.9-77.9-14c-1.3-0.4-2.6-0.6-3.9-0.6
	c-1.8,0-3.6,0.4-5.1,1.2c-2.4,1.3-4.2,3.5-5.1,6.2c-1.9,6.3,1.1,12.1,7.5,14.3c113.9,38.9,242.8-1.8,313.4-99.2
	c19.9-27.4,34.2-58.5,42.5-92.4v0C554.8,296.8,553.8,246.7,540.1,199.5z M194.6,253.2c11.1-12,23-23.3,34.6-34.3
	c5-4.7,10.2-9.6,15.1-14.4l7.9-7.7l105.6,105.7l-7.6,7.9c-4.9,5.1-9.9,10.5-14.7,15.7c-11.3,12.2-22.9,24.9-35.9,36.3
	c-12.8,11.3-29.3,17.3-46.9,17.3c-1.8,0-3.6-0.1-5.4-0.2c-19.2-1.3-37-9.5-50-23.1C169.3,327.2,168.1,281.9,194.6,253.2z"/>
</svg>
