<?xml version="1.0" encoding="utf-8"?>
<!-- Generator: Adobe Illustrator 22.1.0, SVG Export Plug-In . SVG Version: 6.00 Build 0)  -->
<svg version="1.1" id="图层_1" xmlns="http://www.w3.org/2000/svg" xmlns:xlink="http://www.w3.org/1999/xlink" x="0px" y="0px"
	 viewBox="0 0 555 555" style="enable-background:new 0 0 555 555;" xml:space="preserve">
<g>
	<path d="M148.4,500.9c0.9-3.1,0.7-5.7-0.5-8c-1.9-3.4-5.5-4.5-8.1-5.2c-0.7-0.2-1.4-0.4-1.8-0.6c-39.3-16.2-69.7-38.7-93-68.9
		c-10.2-13.2-21-29.6-23.8-51.4c-2.8-21.8,3.6-43.9,17.1-59.1c9.9-11.2,22.6-17.4,35.8-17.4c0.1,0,0.1,0,0.2,0
		c7.8,0,15.4-0.8,22.5-1.6c16-2,34.8-11.1,33.5-43.4c-0.5-12.9-3-25.5-5.8-38.4c-8.9-41-0.3-65,30.5-85.8
		c21.1-14.2,44.7-23.2,70-26.8c12.6-1.8,25.5-2.9,38-4c7.9-0.7,16.1-1.4,24.2-2.3c3.7-0.4,9.3-3.7,10-8.2c0.6-3.7-0.6-6-1.7-7.3
		c-2.6-3.1-6.8-3.1-8.8-3.1c-3.5,0-7.1,0-10.5,0c-0.2,0-0.4,0-0.7,0l-0.3-1.8l-4.4,0.7c-6.8,1.1-13.8,2.2-20.5,3.2
		c-15.3,2.3-31.2,4.7-46.7,8.3c-28.6,6.5-53.3,19.2-73.5,37.6c-19,17.4-27.9,39.5-26.3,65.7c0.4,7.3,1.7,14.4,2.8,21.4
		c0.6,3.3,1.1,6.7,1.6,10.1c0.5,3.4,1.1,6.8,1.6,10.2c1.3,7.7,2.6,15.7,2.9,23.4c0.5,13.2-4.1,19.5-15.4,21.3
		c-6.9,1.1-15.9,2.3-24.9,2.3c-0.1,0-0.1,0-0.2,0c-17.1,0-34.3,8.7-47.4,23.8c-13.4,15.5-21.1,36.1-21.8,57.9
		c-0.8,24.4,6.6,46.6,23.1,70c25.8,36.3,60.3,63,105.6,81.5c0.4,0.2,1,0.5,1.6,0.8c1.9,1,4.3,2.2,6.9,2.2c1,0,2-0.2,3-0.6
		C145.8,506.1,147.4,504,148.4,500.9z"/>
	<path d="M528.9,185.6c-4.9-9.3-10.9-17.8-16.8-26c-1.7-2.4-3.4-4.8-5.1-7.2c-2.2-3.2-6.6-4.2-9.7-3.9c-0.8,0.1-1.5,0.4-2.2,0.8
		c0.6-6.2,1.1-12.5,1.7-18.7c2.2-24.2,4.5-49.3,6.8-73.9c0.6-6.2,1-10.7-1.8-13.8c-2.5-2.8-6.3-3-11.3-3c-31.1,0-62.3,0-93.4,0
		l-37.9,0c3.2-15.3-2.1-27.9-13.5-32.1c-5-1.9-10.1-1.7-14.7,0.5c-5.9,2.8-10.6,8.6-13.4,16.8c-3,8.8-6.1,17.6-9.1,26.3
		c-10.4,30-21.2,61-31.6,91.6c-24.5,72.5-47.7,152.8-71,245.5c-1,3.9-1.8,4.6-4.2,5.3c-26.1,7.3-40.4,31.7-36.6,62.2
		c0.7,5.3,1.9,10.4,3,15.2c1.9,7.6,0.8,15.4-2.9,21.4c-3,4.8-7.5,8-12.7,9.1c-2.7,0.6-4.5,2.6-5.9,4.2c-0.4,0.5-0.9,1-1.2,1.3
		l-3.1,2.8l2.6,3.3c0.3,0.4,0.7,1,1,1.6c1.2,1.9,2.7,4.3,5.3,5.3c4.8,1.8,10.1,3.3,16.4,4.6c6.2,1.3,12.3,1.9,18.1,1.9
		c29.8,0,54.9-15.9,70.5-45.2c11-20.7,10.1-46.4-2.5-65.3c-2.2-3.4-2.4-5.3-1-9.4c22.7-64.8,48.3-139.7,68.6-216.3
		c1.5,16.6,3.1,33.3,4.6,49.9c2.7,29,5.4,57.9,8,86.9c1.5,16,2.9,32,4.3,48.1c2,22.8,4.1,46.3,6.3,69.5c0.5,5.7,0.9,9.5,3.4,12
		c2.6,2.7,6.1,2.7,11.3,2.7c2.1,0,4.1,0,6.2,0h2.9c2.7,0,5.6,0,6.8,0.3c0.3,1.4,0.1,5.2-0.1,8.8l0,0.5c0,0.4,0,0.7-0.1,0.9
		c-2.5-0.1-5.1-0.1-7.5,0c-2.1,0-4.1,0-6,0c-3.3-0.1-5.8,0.8-7.7,2.7c-2.1,2.1-3.1,5.1-3.1,9.1c0,3.6,0.1,7,0.1,10.3
		c-2.7-1.2-5.6-0.5-7.6,0c-0.5,0.1-0.9,0.2-1.4,0.3c-4.9,1-9.8,1.9-14.7,2.9c-14.3,2.9-29.1,5.8-43.7,8c-7.2,1.1-14.7,1.6-22,2
		c-5.4,0.3-10.9,0.7-16.4,1.2c-3.1,0.3-5.4,2.5-7.2,4.3c-0.6,0.6-1.2,1.1-1.7,1.5l-4.8,3.7l5,3.5c0.5,0.4,1.1,0.9,1.8,1.4
		c1.9,1.6,4,3.4,6.9,3.9c2,0.4,4,0.5,6,0.5c1.4,0,2.7-0.1,4-0.1c1.3,0,2.5-0.1,3.7-0.1l0.3,0c28-1.8,56.3-6.5,86.4-14.4
		c0.4-0.1,0.8-0.2,1.2-0.3c0.9-0.2,2.5-0.6,4.2-1.4c0,0.9,0,1.7,0,2.5c-0.1,4,0.9,7,3,9.1c2,2,4.7,3,8.2,3c0,0,0,0,0,0
		c32.9-0.1,62.7-0.1,91.1,0c0,0,0,0,0,0c3.5,0,6.2-1,8.2-2.9c2.1-2.1,3.1-5.1,3-9.2c-0.2-9.3-0.2-19.1,0-30c0.1-4.1-0.9-7.1-3-9.1
		c-1.9-1.9-4.5-2.8-7.8-2.7c-3.5,0.1-7,0.1-10.6,0c-0.2,0-0.3,0-0.5,0v-10.5c0.4,0,0.8,0,1.2,0c4.1-0.1,7.9-0.1,11.7,0.1
		c7.8,0.5,12.1-3.7,12.9-12.7c0.2-3,0.5-5.9,0.7-8.9c0.1,0.1,0.2,0.3,0.4,0.4c0.8,0.9,2.3,1.9,4.9,2c0.1,0,0.1,0,0.2,0
		c2.8,0,6.7-1.2,9-3.5c43.4-43.2,66.2-97.9,67.7-162.4l0,0C551.2,244,543.8,214.2,528.9,185.6z M442.2,504V489h4V504H442.2z
		 M374.5,489.1v14.9h-5.9v-14.9H374.5z M423.8,489.1v15h-7.1v-15H423.8z M423.8,459.3v10.4h-30.9v-10.3c0.1,0,0.2,0,0.3,0
		c8.8,0,17.6,0,26.7,0L423.8,459.3z M398.2,489.2v14.9h-5.4v-14.9H398.2z M451.2,437.8c-0.1,0.6-0.2,2.2-0.5,2.9c-0.1,0-0.3,0-0.6,0
		c-20.6-0.2-41.5-0.2-61.7-0.2c-8.8,0-17.6,0-26.4,0c-0.3-3.3-0.7-6.7-1-10c-0.9-9.5-1.9-19.3-2.8-29c-2.1-22.5-4.1-45-6.1-67.5
		c-1.7-18.4-3.3-36.9-5-55.3c-1.1-12.5-2.3-24.9-3.4-37.4c-2.9-30.9-5.8-62.9-8.5-94.4c-0.4-4.4,0.1-9.5,1.4-15.7
		c1.9-9.3,4.5-19.3,7.9-31.4c0.1-0.3,0.6-0.9,1-1.2c43.5-0.2,87.7-0.1,130.4,0l6.3,0l-1.4,14.8c-1.3,14.8-2.7,29.5-4,44.2
		c-2,22.6-4.1,45.1-6.1,67.7c-2.5,27.9-5,55.7-7.6,83.6c-2.5,27.4-5,54.7-7.5,82.1L451.2,437.8z M226.3,378.9l19.8-75l20.2,8.4
		l-24.9,72.8L226.3,378.9z M184,463.1c-0.4-1.9-0.5-3.1-0.6-3.7c0.4-0.1,1.1-0.2,2.2-0.2c6.1-0.3,10.8,2.9,15.9,10.9
		c0.8,1.3,1.7,2.7,2.5,4.1c2.5,4.1,5,8.4,8.3,11.9c3.1,3.3,6.8,5.7,10.3,8c0.1,0.1,0.2,0.1,0.3,0.2c-9.4,9.8-29.2,15.2-45.8,12.7
		c4.7-6.5,8.9-14.7,9.2-25.2C186.5,475.3,185.2,469.1,184,463.1z M239.9,472.1c-1.9,2.4-4.8,5.4-7.8,5.4c0,0,0,0,0,0
		c-3.1,0-6.3-3.1-8.3-5.7c-2-2.5-3.7-5.6-5.4-8.5c-9.1-16.1-18.1-22.7-32.7-22.7c-0.9,0-1.9,0-2.9,0.1c0.6-9.2,5.4-18.1,12.8-23.6
		c6.2-4.5,13-5.8,18.9-3.4c1.7,0.7,3.3,1.5,5.1,2.3c3.6,1.7,7.3,3.4,11.2,4.4c6.3,1.7,10.4,6.6,13,15.5
		C248.3,451.3,247.1,462.8,239.9,472.1z M472,78.9V58.8h13.6l-1.8,20.1H472z M381.1,76.7c0,0.8,0,1.6,0,2.4h-17.7c0-0.7,0-1.3,0-2
		c0-6.4-0.1-12.5,0.2-18.6c0,0,0.1-0.1,0.1-0.1c6.1-0.3,11.6-0.4,16.8,0c0.1,0.1,0.3,0.3,0.4,0.5C381.2,64.7,381.2,70.6,381.1,76.7z
		 M398.6,59c0.1-0.2,0.2-0.3,0.4-0.5c6.5-0.3,13-0.3,19.4,0c0.1,0.2,0.3,0.4,0.4,0.6c0.2,5.6,0.2,11.4,0.2,17.5c0,0.9,0,1.9,0,2.8
		c-0.8,0-1.5,0-2.3,0c-6.1,0-12,0.1-17.7-0.2c-0.1-0.2-0.3-0.4-0.3-0.5C398.2,72.1,398.2,65.5,398.6,59z M436.7,58.5
		c5-0.2,10-0.2,15.4-0.1c0.5,0,1,0,1.5,0v20.4h-17c0-0.6,0-1.2,0-1.7C436.6,71,436.5,64.7,436.7,58.5z M333.9,32
		c1.6-4.8,3.4-6,3.9-6.2c0.2-0.1,0.8-0.4,2.2,0.2c1.1,0.5,4,1.7,2,9.9c-3.5,14.1-7,28.4-10.4,42.2c-15.6,63.6-31.8,129.3-51.8,192.4
		c-0.7,2.2-1.4,4.3-2.1,6.7l-21.1-8.8c0.8-3,1.7-6,2.5-8.9c2.5-9.2,4.9-17.8,7.8-26.4c21.7-65.3,43.9-131.6,65.4-195.7L333.9,32z
		 M475,367.1l1-11c3.7-39.9,7.3-79.9,11-119.8c2.2-24,4.4-48.1,6.6-72.1c0.5,0.7,1,1.4,1.6,2.1c35.2,45,46.1,97.8,32.2,156.8
		c-9,38.1-27.8,71.6-55.9,99.7c-0.4,0.4-1,1-1.7,1.7C471.5,405.3,473.2,386,475,367.1z"/>
	<path d="M176.7,138.2c-22,0-39.3,19.8-39.5,45c-0.1,13.3,4.7,25.9,13.3,34.5c7.1,7.2,16.5,11.2,26.2,11.2c0,0,0,0,0,0
		c22,0,39.3-19.7,39.4-44.8c0.1-13.4-4.8-26.1-13.4-34.7C195.6,142.2,186.4,138.2,176.7,138.2C176.7,138.2,176.7,138.2,176.7,138.2z
		 M190.3,204.4c-4,3.9-9,6-13.8,5.9c-12.2-0.2-21.9-12.5-21.8-27.2c0.1-7.8,3-15,8.1-20c4.1-3.9,9.2-6.1,14.5-6
		c11.9,0.2,21.8,12.4,21.6,26.6C198.8,191.7,195.7,199.2,190.3,204.4z"/>
	<path d="M68.3,317.1c0.2-0.1,0.8-0.1,1.3-0.1c2.1-0.1,5.2-0.3,7.3-3c1.4-1.7,1.9-4,1.4-6.8c-0.4-2.8-1.7-4.8-3.6-6
		c-3.1-2-6.6-0.9-8.8-0.2c-0.4,0.1-0.8,0.2-1.2,0.3c-20,4.7-34.3,26.1-34.8,52.2l0,0.3l0,0.3c0.1,0.5,0.1,1.2,0.2,1.9
		c0.3,2.7,0.7,6.3,1.5,10c0.6,2.7,2.8,4.1,4.2,4.9c0.3,0.2,0.7,0.4,0.8,0.5l4.1,3.3l2.6-4.6c0.2-0.3,0.4-0.6,0.6-1
		c0.8-1.2,1.9-2.8,2.2-5c0.2-2.1-0.1-4-0.5-5.6c-0.1-0.5-0.2-1.1-0.3-1.6C43.1,339.5,53.9,320.5,68.3,317.1z"/>
	<path d="M55.6,425.5c13.4,14.6,28.8,26.7,45.9,35.8c1.1,0.6,2.2,0.8,3.2,0.8c1.8,0,3.5-0.6,4.8-1.1c0.6-0.2,1.2-0.4,1.6-0.5
		l5.1-1.1l-1.9-4.9c-0.3-0.7-0.5-1.3-0.8-2c-0.7-1.8-1.4-3.7-2.3-5.6c-1-2-2.8-2.8-3.7-3.2c-0.1,0-0.2-0.1-0.3-0.1
		c-17.9-10.4-32.8-22.9-45.5-38.3c-1.1-1.3-2.3-2.4-3.5-3.4c-0.5-0.4-1-0.9-1.6-1.4l-3.1-2.8l-3,2.8c-0.3,0.3-0.7,0.6-1.2,0.9
		c-1.3,1-3.1,2.4-3.7,4.8c-0.6,2.6-0.4,6.5,1.4,9.1C49.7,419,52.6,422.2,55.6,425.5z"/>
	<path d="M466.8,225.5c0.5-5.2,0.8-9.4-1.8-12.3c-2.6-2.8-6.6-2.8-10.8-2.8c-11.4,0-22.9,0-34.3,0l-12.9,0c-4.6,0-9.1,0-13.7,0
		c-11.8,0-24,0-36-0.1c-3.8-0.1-6.5,1-8.5,3c-2.8,3-2.8,7.1-2.5,10c1.9,22.3,4.3,51.6,6.5,80.9c0.6,7.9,4.4,11.7,11.8,11.7
		c0,0,0.1,0,0.1,0c31.9-0.2,58.1-0.2,82.6,0c0.1,0,0.1,0,0.2,0c11.5,0,12.3-9.5,12.5-12.7c1.5-18.5,3.2-37.3,4.8-55.4
		C465.5,240.4,466.1,233,466.8,225.5z M423,296.9c-16.9,0-34.3,0-51.4-0.1c-0.7,0-1.2,0.1-1.8,0.1c0,0,0,0-0.1,0
		c-1-13.3-2-26.6-3.1-39.9c-0.7-9.2-1.4-18.4-2.1-27.5h84.4l-6,67.3L423,296.9z"/>
</g>
</svg>
