<?xml version="1.0" encoding="utf-8"?>
<!-- Generator: Adobe Illustrator 22.1.0, SVG Export Plug-In . SVG Version: 6.00 Build 0)  -->
<svg version="1.1" id="图层_1" xmlns="http://www.w3.org/2000/svg" xmlns:xlink="http://www.w3.org/1999/xlink" x="0px" y="0px"
	 viewBox="0 0 555 555" style="enable-background:new 0 0 555 555;" xml:space="preserve">
<path d="M477.3,446c13.4,3.5,26,6.5,38.3,10.3c5.1,1.6,9.8,4.8,14.3,7.9c6.2,4.3,9.1,10.6,8.9,18.4c-0.3,9.3-0.5,18.6,0.1,27.9
	c0.7,11.4-4.8,18.6-14,24c-11.6,6.7-24.3,10-37.2,12.1c-34.9,5.6-69.8,5.4-104.3-3.1c-8.4-2.1-16.5-5.7-24.3-9.6
	c-8.9-4.5-13.8-11.9-13.2-22.6c0.5-9.6,0.3-19.3,0.1-29c-0.2-7.3,2.7-13.1,8.3-17.6c11.4-9.1,25.1-12.2,38.9-15.1
	c4.6-1,9.3-1.6,14.2-2.5c0-19.4,0.1-38.5-0.1-57.7c0-1.8-1.8-3.8-3.2-5.3c-17.9-18-35.8-35.9-53.8-53.9
	c-9.6-9.7-10.5-11.3-13.4-24.2c-7.2,8.7-14,17.7-21.5,26.1c-22.4,25.2-48.7,45.6-78.6,61.2c-3.6,1.9-4.8,4-4.7,8
	c0.3,14.8,0.1,29.5,0.1,44.6c11.9,1.6,23.8,2.4,35.2,4.8c12.4,2.7,24.7,6.3,36.6,10.7c11.1,4.1,17.1,12.3,16,25.1
	c-0.7,8.1-0.5,16.4,0,24.6c0.6,9.9-3.7,17.1-12.2,20.8c-11,4.7-22.3,9.3-34,11.5c-45.4,8.6-91.1,9.2-136.7,2.6
	c-13.4-1.9-26.7-5.6-39.9-8.9c-3.8-0.9-7.4-3.1-10.9-5.1c-8.1-4.6-12.5-11.2-12-21c0.5-8.9,0.5-17.9,0-26.8
	c-0.6-9.6,3.5-16.9,11.7-20.4c11.3-4.9,23-9.1,35-11.9c13.3-3.1,27-4.1,41-6.1c0-15.8,0.1-31.8-0.2-47.9c0-1.5-2.4-3.4-4.1-4.3
	c-28.9-15.2-54.4-34.6-76.5-58.7c-37.3-40.7-60.8-88.3-70.5-142.7c-1.9-10.8-3.9-21.5-5.9-32.3c-1.3-7.2-0.2-9.8,6.6-13.1
	c15.7-7.5,30.7-16.1,43.3-28.3c18.9-18.3,32.2-39.8,38.1-65.7c3-13.3,12.7-21.4,23.8-27.9c17.5-10.2,36.8-14.7,56.7-16.7
	c29.4-3,58.3-1.3,86.4,8.6c12.1,4.3,23.8,9.8,32.2,19.9c3.9,4.6,7.5,10.2,8.9,16c9.6,38.1,31.9,66.2,65.4,85.8
	c5.7,3.3,11.7,6,17.5,9c4.1,2.1,6.7,5.3,5.8,10.1c-5.1,27-8.6,54.4-18.4,80.3c-4,10.5-8.8,20.8-13.1,31.2c-0.3,0.8-0.6,1.6-0.1,2.8
	c16.5-16.5,32.9-33.1,49.4-49.6c4.4-4.4,8.7-8.9,13.2-13.2c12.9-12.3,31-12.6,43.7,0c24.8,24.5,49.5,49.1,74,74
	c13.1,13.2,12.6,30.8-0.8,44.3c-18.6,18.8-37.4,37.5-56.2,56.1c-2.7,2.6-3.9,5.2-3.9,9C477.4,410.6,477.3,428.6,477.3,446z
	 M22.8,161.5c1.8,9.5,3.4,19.1,5.3,28.5c19.2,95.4,73.7,161.9,163.2,199.8c3.8,1.6,7.2,1.7,10.9,0.2
	c79.3-33.1,132.1-90.4,156.9-172.7c5.5-18.4,8.4-37.5,12.3-55.5c-11.6-6.9-22-13.2-32.9-19.7c-8.1,18.6-19.3,35.5-33.3,50.2
	c8.4,13.6,7,27.1-3.3,36.2c-11.1,9.7-24.3,8.4-38.8-4c-8.2,3.6-16.4,7.1-24.7,10.8c0.2,1.1,0.5,2.2,0.7,3.2
	c3.7,18.1,0.9,34.9-10.4,49.7c-16.2,21.3-44.3,22.3-61.9,2.1c-11.4-13.2-15.2-28.8-13.2-45.9c0.4-3.2,1.1-6.3,1.6-9.2
	c-8.5-3.7-16.5-7.2-24.6-10.7c-14.1,11.8-26.3,13.8-37,4.9c-4.1-3.4-7.4-8.6-9.4-13.6c-3.4-8.3-0.5-16.4,3.1-22
	c-11.6-17.6-22.6-34.3-33.6-50.9C44.4,148.5,33.8,154.9,22.8,161.5z M101.2,82.5c-7.8,16.9-17.7,31.7-30.2,44.7
	c-0.9,1-1.3,3.4-0.8,4.7c7.2,18.2,17.6,34.3,31.3,48.3c1.2,1.2,3.4,2,5.2,2c15.1,0,24.4,7,28.3,21.4c0.5,1.7,1.8,3.7,3.2,4.5
	c7,3.4,14.2,6.6,21.5,9.5c1.4,0.5,4.3-0.3,5.3-1.5c18.4-21.6,45.7-21.8,63.6,0c1.9,2.3,3.4,2.7,6,1.6c6.8-3.1,13.7-5.9,20.4-9.2
	c1.8-0.9,3.4-3.2,4-5.1c3.5-13.5,13.6-21.2,27.5-21.1c2.2,0,5-1,6.5-2.6c13.2-13.6,23.3-29.4,30.6-46.9c1.2-3,0.4-4.6-1.5-6.6
	c-11.2-11.4-20.1-24.5-27.1-38.9c-0.7-1.5-1.6-3-1.8-3.5c-9,5.4-17,11.3-25.9,15.2c-28.2,12.4-58.1,14.8-88.4,12.3
	C150.5,108.8,123.6,102.7,101.2,82.5z M442.2,393.5c3.6-2.1,7.2-3.3,9.6-5.7c24.6-24.4,49.1-48.9,73.6-73.5c6-6.1,6.1-12.8,0.2-18.8
	c-24.6-24.7-49.2-49.3-73.9-73.9c-6.1-6-12.8-6.1-18.8-0.1c-24.7,24.6-49.3,49.2-73.9,73.9c-6,6-5.9,12.8,0.1,18.8
	c24.5,24.6,48.9,49.1,73.6,73.5C435.1,390.2,438.6,391.4,442.2,393.5z M193.8,94.6c19.8-0.1,36.5-1.9,52.6-6.7
	c11.9-3.5,23.6-8,32.6-17.1c7.5-7.6,7.9-15.3-0.1-22.3c-6.1-5.3-13.2-10.1-20.6-12.9c-39.3-14.9-79.1-14.8-118.8-1.7
	c-9.6,3.1-18.6,7.7-25.5,15.4c-6.2,7-6.4,13.7,0,20.4c3.5,3.6,7.6,6.9,12,9.3C148,91.1,172.1,94,193.8,94.6z M91.5,479.1
	c2.1,1.8,2.6,2.5,3.4,2.9c1.8,1,3.5,2.1,5.4,2.6c14.1,3.3,28.2,7.5,42.5,9.6c33.2,4.8,66.6,4.6,99.9,1.2
	c17.4-1.8,34.8-4.3,51.2-10.9c2.5-1,4.9-2.6,8.5-4.5c-23.1-11.9-46.7-13.5-67.8-15.8c-5.8,4.7-9.8,8.7-14.6,11.4
	c-10.9,6.2-22.9,5.5-34.7,3.8c-9.4-1.3-17.8-5.2-23-14c-0.5-0.8-2.5-1.3-3.7-1.1c-15.1,2.3-30.3,4.3-45.3,7.3
	C106.2,472.9,99.5,476.2,91.5,479.1z M302,501.7c-70.2,18.2-140,18.2-210.3,0c0,1.9,0.4,4.6-0.1,7.3c-0.9,5.4,1.9,8.2,6.4,9.8
	c5.1,1.9,10.2,3.9,15.5,5.1c51.2,11.5,102.7,11.5,154.2,2.7c9.6-1.6,19-5,28.2-8.2c2.4-0.8,5.1-3.7,5.7-6.1
	C302.8,508.7,302,504.7,302,501.7z M363.2,479.1c0,0.9-0.1,1.9-0.1,2.8c6.1,2.7,11.9,6,18.3,7.8c25.8,7.8,52.4,8.9,79.1,7.2
	c16.4-1,32.7-3.2,48.1-9.2c4.4-1.7,8.5-4.4,14.1-7.3c-3.9-2.6-6.1-4.8-8.7-5.5c-11.5-3.5-23-6.6-34.6-9.6c-0.9-0.2-2.4,0.9-3.4,1.6
	c-3.9,3-7.4,6.5-11.5,9c-8.8,5.2-18.6,4.4-28.3,4.2c-8.9-0.2-18-2.3-23.3-9c-5.7-7.2-11.6-5.5-18-4c-6.7,1.6-13.4,3.4-19.9,5.8
	C370.9,474.3,367.1,477,363.2,479.1z M170.6,252.3c-0.5,0.2-0.9,0.3-1.4,0.5c2.5,7.3,4,15.2,7.8,21.8c9.2,16.3,27.4,17,38.6,2.3
	c10.6-13.8,10.1-37.3-1.1-50.5c-10.3-12.2-25-12.2-35.2,0.1C173,233.9,170.8,242.8,170.6,252.3z M363.4,502.5c0,2.1,0.3,4.3-0.1,6.4
	c-1,6.1,1.7,9.7,7.2,11.7c5.1,1.9,10.1,4.2,15.4,5.5c33.4,8.4,67.2,8.8,100.9,2.5c9.9-1.8,19.5-5.7,29-9.3c2.2-0.8,4.4-3.8,5-6.2
	c0.9-3.4,0.2-7.2,0.2-10.6C468.5,519.6,416.4,519.7,363.4,502.5z M179.4,404.3c0,17.6-0.1,34.9,0.2,52.1c0,1.4,2.1,3.7,3.5,3.9
	c6,1.1,12.1,2,18.2,2.1c11.1,0.1,13.2-2.2,13.2-13.1c0-14.9,0-29.8,0-45c-6.2,2-11.9,5.2-17.5,5.2
	C191.3,409.5,185.6,406.3,179.4,404.3z M424.7,404.6c0,17.8-0.1,34.9,0.1,51.9c0,1.3,1.7,3.2,3.1,3.7c9.5,3.5,19.2,3.5,28.7,0
	c1.3-0.5,3-2.5,3-3.8c0.2-17,0.1-34.1,0.1-51.9C447.9,411.7,436.6,411.7,424.7,404.6z M109.3,199.7c-4.7,0-8.6,3.9-8.7,8.6
	c-0.1,4.9,4.1,9,9,8.9c4.7-0.1,8.5-4.2,8.5-8.9C117.9,203.7,114,199.7,109.3,199.7z M284.3,199.7c-4.7,0.1-8.6,4.1-8.5,8.8
	c0,4.9,4.3,8.9,9.2,8.6c4.6-0.3,8.4-4.5,8.2-9.1C293,203.4,288.9,199.6,284.3,199.7z"/>
<path d="M441.9,330.8c-1.2,3.3-2.3,7.5-4.2,11.3c-4.4,8.9-11.2,15.1-21.6,15.1c-10.5,0-17.3-6.2-21.7-15
	c-7.5-15.2-7.8-38.8,10.7-51.6c1.3-0.9,2-3.3,2.1-5c0.2-8,0.1-16,0.1-24.3c5.8,0,11.2,0,17.5,0c0,7.4,0.1,15-0.1,22.6
	c-0.1,3.5,0.6,6,3.8,8.2c7.1,5,11.1,12.3,13.1,20.3c3.5-5.7,6-12.9,10.9-16.7c6.9-5.4,7.8-11.3,7.3-18.8c-0.3-5-0.1-10.1-0.1-15.5
	c5.9,0,11.3,0,17.5,0c0,7.7,0.1,15.5-0.1,23.2c-0.1,3.2,0.7,5.3,3.5,7.2c20.9,15.1,15.8,46.7,3.8,58.5c-10.1,10-24.8,9.6-33.5-1.9
	C447.1,343.1,444.8,336.5,441.9,330.8z M425.9,322.4c-1.9-5.1-3.1-10-5.6-14.4c-2.4-4.3-5.6-4-8.7-0.3c-5.8,7-5.8,22.3,0,29.3
	c3.1,3.7,6.3,4,8.7-0.3C422.8,332.4,424,327.4,425.9,322.4z M458.5,322.2c2,5.2,3.3,10.3,5.8,14.7c2.3,4,5.4,3.7,8.4,0.2
	c6.1-7,6-22.8-0.1-29.7c-3-3.4-6.1-3.7-8.4,0.4C461.8,312.1,460.5,317.1,458.5,322.2z"/>
</svg>
